<?xml version="1.0" standalone="no"?>
<!DOCTYPE svg PUBLIC "-//W3C//DTD SVG 20010904//EN"
 "http://www.w3.org/TR/2001/REC-SVG-20010904/DTD/svg10.dtd">
<svg version="1.0" xmlns="http://www.w3.org/2000/svg"
 width="512.000000pt" height="512.000000pt" viewBox="0 0 512.000000 512.000000"
 preserveAspectRatio="xMidYMid meet">

<g transform="translate(0.000000,512.000000) scale(0.100000,-0.100000)"
fill="#000000" stroke="none">
<path d="M1943 4331 c-102 -35 -184 -112 -213 -202 -12 -35 -16 -38 -79 -53
-109 -26 -187 -72 -277 -161 -57 -57 -89 -99 -112 -146 -60 -125 -64 -154 -60
-522 l3 -332 31 -88 c39 -109 83 -183 154 -260 l55 -60 5 289 c5 268 7 293 28
344 32 79 88 149 161 197 113 77 69 74 977 71 l809 -3 46 -23 c74 -36 125 -87
161 -160 l33 -66 5 -325 5 -324 55 60 c71 77 115 151 154 260 l31 88 3 379 c3
426 -1 467 -64 604 -105 230 -300 386 -546 436 -66 14 -169 16 -695 16 -568
-1 -622 -2 -670 -19z"/>
<path d="M1330 1140 c-338 -52 -392 -65 -482 -120 -53 -32 -188 -154 -188
-170 0 -13 225 -226 305 -290 326 -259 722 -440 1132 -515 831 -154 1688 116
2283 719 l84 86 -59 61 c-69 71 -155 130 -229 158 -51 19 -698 121 -767 121
-51 0 -75 -30 -93 -120 -52 -247 -245 -442 -521 -526 -79 -24 -107 -27 -230
-28 -148 -1 -207 10 -327 58 -100 41 -170 88 -254 172 -96 96 -152 197 -179
321 -23 102 -42 123 -109 122 -28 -1 -193 -23 -366 -49z"/>
</g>
</svg>
