<?xml version="1.0" encoding="UTF-8"?>
<!DOCTYPE svg PUBLIC "-//W3C//DTD SVG 1.1//EN" "http://www.w3.org/Graphics/SVG/1.1/DTD/svg11.dtd">
<svg xmlns="http://www.w3.org/2000/svg" version="1.1" width="512px" height="512px" style="shape-rendering:geometricPrecision; text-rendering:geometricPrecision; image-rendering:optimizeQuality; fill-rule:evenodd; clip-rule:evenodd" xmlns:xlink="http://www.w3.org/1999/xlink">
<g><path style="opacity:0.995" fill="#d70027" d="M 232.5,-0.5 C 247.833,-0.5 263.167,-0.5 278.5,-0.5C 368.144,10.3879 435.644,54.7213 481,132.5C 486.851,143.568 492.018,154.901 496.5,166.5C 445.833,166.5 395.167,166.5 344.5,166.5C 344.667,151.496 344.5,136.496 344,121.5C 334.333,114.167 324.667,106.833 315,99.5C 305.007,106.665 295.174,113.999 285.5,121.5C 275.238,114.578 265.238,107.244 255.5,99.5C 245.762,107.244 235.762,114.578 225.5,121.5C 215.826,113.999 205.993,106.665 196,99.5C 186.333,106.833 176.667,114.167 167,121.5C 166.5,136.496 166.333,151.496 166.5,166.5C 115.833,166.5 65.1667,166.5 14.5,166.5C 48.0418,82.7918 108.375,29.2918 195.5,6C 207.897,3.37954 220.23,1.21287 232.5,-0.5 Z"/></g>
<g><path style="opacity:1" fill="#3589f2" d="M 225.5,121.5 C 225.5,136.5 225.5,151.5 225.5,166.5C 217.833,166.5 210.167,166.5 202.5,166.5C 202.167,166.5 201.833,166.5 201.5,166.5C 189.833,166.5 178.167,166.5 166.5,166.5C 166.333,151.496 166.5,136.496 167,121.5C 176.667,114.167 186.333,106.833 196,99.5C 205.993,106.665 215.826,113.999 225.5,121.5 Z"/></g>
<g><path style="opacity:1" fill="#0552b3" d="M 285.5,121.5 C 285.5,136.5 285.5,151.5 285.5,166.5C 281.5,166.5 277.5,166.5 273.5,166.5C 261.5,166.5 249.5,166.5 237.5,166.5C 233.5,166.5 229.5,166.5 225.5,166.5C 225.5,151.5 225.5,136.5 225.5,121.5C 235.762,114.578 245.762,107.244 255.5,99.5C 265.238,107.244 275.238,114.578 285.5,121.5 Z"/></g>
<g><path style="opacity:1" fill="#3589f2" d="M 344.5,166.5 C 332.833,166.5 321.167,166.5 309.5,166.5C 309.167,166.5 308.833,166.5 308.5,166.5C 300.833,166.5 293.167,166.5 285.5,166.5C 285.5,151.5 285.5,136.5 285.5,121.5C 295.174,113.999 305.007,106.665 315,99.5C 324.667,106.833 334.333,114.167 344,121.5C 344.5,136.496 344.667,151.496 344.5,166.5 Z"/></g>
<g><path style="opacity:0.998" fill="#f0efef" d="M 14.5,166.5 C 65.1667,166.5 115.833,166.5 166.5,166.5C 166.5,178.167 166.5,189.833 166.5,201.5C 177.988,202.495 189.655,202.828 201.5,202.5C 201.5,214.167 201.5,225.833 201.5,237.5C 189.833,237.5 178.167,237.5 166.5,237.5C 166.5,249.5 166.5,261.5 166.5,273.5C 178.167,273.5 189.833,273.5 201.5,273.5C 201.5,285.167 201.5,296.833 201.5,308.5C 190.48,308.168 179.48,308.501 168.5,309.5C 168.624,310.107 168.957,310.44 169.5,310.5C 172.694,322.886 178.027,334.219 185.5,344.5C 128.664,344.168 71.9975,344.501 15.5,345.5C 7.17302,323.86 1.83969,301.526 -0.5,278.5C -0.5,263.167 -0.5,247.833 -0.5,232.5C 1.94494,210.043 6.94494,188.043 14.5,166.5 Z"/></g>
<g><path style="opacity:1" fill="#d70026" d="M 166.5,166.5 C 178.167,166.5 189.833,166.5 201.5,166.5C 201.5,178.167 201.5,189.833 201.5,201.5C 189.833,201.5 178.167,201.5 166.5,201.5C 166.5,189.833 166.5,178.167 166.5,166.5 Z"/></g>
<g><path style="opacity:1" fill="#d70026" d="M 309.5,166.5 C 321.167,166.5 332.833,166.5 344.5,166.5C 344.5,178.167 344.5,189.833 344.5,201.5C 332.833,201.5 321.167,201.5 309.5,201.5C 309.5,189.833 309.5,178.167 309.5,166.5 Z"/></g>
<g><path style="opacity:0.998" fill="#f0efef" d="M 344.5,166.5 C 395.167,166.5 445.833,166.5 496.5,166.5C 504.055,188.043 509.055,210.043 511.5,232.5C 511.5,247.833 511.5,263.167 511.5,278.5C 508.969,301.482 503.636,323.815 495.5,345.5C 439.002,344.501 382.336,344.168 325.5,344.5C 332.981,334.203 338.315,322.869 341.5,310.5C 342.043,310.44 342.376,310.107 342.5,309.5C 331.52,308.501 320.52,308.168 309.5,308.5C 309.5,296.833 309.5,285.167 309.5,273.5C 321.167,273.5 332.833,273.5 344.5,273.5C 344.5,261.5 344.5,249.5 344.5,237.5C 332.833,237.5 321.167,237.5 309.5,237.5C 309.5,225.833 309.5,214.167 309.5,202.5C 321.345,202.828 333.012,202.495 344.5,201.5C 344.5,189.833 344.5,178.167 344.5,166.5 Z"/></g>
<g><path style="opacity:1" fill="#e4788b" d="M 201.5,166.5 C 201.833,166.5 202.167,166.5 202.5,166.5C 202.5,178.167 202.5,189.833 202.5,201.5C 214.167,201.5 225.833,201.5 237.5,201.5C 249.5,201.5 261.5,201.5 273.5,201.5C 285.167,201.5 296.833,201.5 308.5,201.5C 308.5,189.833 308.5,178.167 308.5,166.5C 308.833,166.5 309.167,166.5 309.5,166.5C 309.5,178.167 309.5,189.833 309.5,201.5C 321.167,201.5 332.833,201.5 344.5,201.5C 333.012,202.495 321.345,202.828 309.5,202.5C 309.5,214.167 309.5,225.833 309.5,237.5C 309.5,249.5 309.5,261.5 309.5,273.5C 309.5,285.167 309.5,296.833 309.5,308.5C 320.52,308.168 331.52,308.501 342.5,309.5C 342.376,310.107 342.043,310.44 341.5,310.5C 331.013,309.506 320.346,309.172 309.5,309.5C 309.5,321.167 309.5,332.833 309.5,344.5C 309.5,349.5 309.5,354.5 309.5,359.5C 309.5,360.167 309.167,360.5 308.5,360.5C 308.5,355.167 308.5,349.833 308.5,344.5C 308.5,332.833 308.5,321.167 308.5,309.5C 296.833,309.5 285.167,309.5 273.5,309.5C 261.5,309.5 249.5,309.5 237.5,309.5C 225.833,309.5 214.167,309.5 202.5,309.5C 202.5,321.167 202.5,332.833 202.5,344.5C 202.5,349.833 202.5,355.167 202.5,360.5C 201.833,360.5 201.5,360.167 201.5,359.5C 201.5,354.5 201.5,349.5 201.5,344.5C 201.5,332.833 201.5,321.167 201.5,309.5C 190.654,309.172 179.987,309.506 169.5,310.5C 168.957,310.44 168.624,310.107 168.5,309.5C 179.48,308.501 190.48,308.168 201.5,308.5C 201.5,296.833 201.5,285.167 201.5,273.5C 201.5,261.5 201.5,249.5 201.5,237.5C 201.5,225.833 201.5,214.167 201.5,202.5C 189.655,202.828 177.988,202.495 166.5,201.5C 178.167,201.5 189.833,201.5 201.5,201.5C 201.5,189.833 201.5,178.167 201.5,166.5 Z"/></g>
<g><path style="opacity:1" fill="#eff0ef" d="M 273.5,166.5 C 277.5,166.5 281.5,166.5 285.5,166.5C 293.167,166.5 300.833,166.5 308.5,166.5C 308.5,178.167 308.5,189.833 308.5,201.5C 296.833,201.5 285.167,201.5 273.5,201.5C 273.5,189.833 273.5,178.167 273.5,166.5 Z"/></g>
<g><path style="opacity:1" fill="#d80429" d="M 237.5,166.5 C 249.5,166.5 261.5,166.5 273.5,166.5C 273.5,178.167 273.5,189.833 273.5,201.5C 261.5,201.5 249.5,201.5 237.5,201.5C 237.5,189.833 237.5,178.167 237.5,166.5 Z"/></g>
<g><path style="opacity:1" fill="#eff0ef" d="M 202.5,166.5 C 210.167,166.5 217.833,166.5 225.5,166.5C 229.5,166.5 233.5,166.5 237.5,166.5C 237.5,178.167 237.5,189.833 237.5,201.5C 225.833,201.5 214.167,201.5 202.5,201.5C 202.5,189.833 202.5,178.167 202.5,166.5 Z"/></g>
<g><path style="opacity:1" fill="#d70026" d="M 237.5,202.5 C 237.5,214.167 237.5,225.833 237.5,237.5C 225.833,237.5 214.167,237.5 202.5,237.5C 202.5,225.833 202.5,214.167 202.5,202.5C 214.167,202.5 225.833,202.5 237.5,202.5 Z"/></g>
<g><path style="opacity:1" fill="#efeded" d="M 237.5,202.5 C 249.5,202.5 261.5,202.5 273.5,202.5C 273.5,214.167 273.5,225.833 273.5,237.5C 261.5,237.5 249.5,237.5 237.5,237.5C 237.5,225.833 237.5,214.167 237.5,202.5 Z"/></g>
<g><path style="opacity:1" fill="#d70026" d="M 273.5,202.5 C 285.167,202.5 296.833,202.5 308.5,202.5C 308.5,214.167 308.5,225.833 308.5,237.5C 296.833,237.5 285.167,237.5 273.5,237.5C 273.5,225.833 273.5,214.167 273.5,202.5 Z"/></g>
<g><path style="opacity:1" fill="#d80429" d="M 201.5,237.5 C 201.5,249.5 201.5,261.5 201.5,273.5C 189.833,273.5 178.167,273.5 166.5,273.5C 166.5,261.5 166.5,249.5 166.5,237.5C 178.167,237.5 189.833,237.5 201.5,237.5 Z"/></g>
<g><path style="opacity:1" fill="#efeded" d="M 202.5,237.5 C 214.167,237.5 225.833,237.5 237.5,237.5C 237.5,249.5 237.5,261.5 237.5,273.5C 225.833,273.5 214.167,273.5 202.5,273.5C 202.5,261.5 202.5,249.5 202.5,237.5 Z"/></g>
<g><path style="opacity:1" fill="#dc2e4d" d="M 237.5,237.5 C 249.5,237.5 261.5,237.5 273.5,237.5C 273.5,249.5 273.5,261.5 273.5,273.5C 261.5,273.5 249.5,273.5 237.5,273.5C 237.5,261.5 237.5,249.5 237.5,237.5 Z"/></g>
<g><path style="opacity:1" fill="#d70026" d="M 238.5,238.5 C 249.833,238.5 261.167,238.5 272.5,238.5C 272.5,249.833 272.5,261.167 272.5,272.5C 261.167,272.5 249.833,272.5 238.5,272.5C 238.5,261.167 238.5,249.833 238.5,238.5 Z"/></g>
<g><path style="opacity:1" fill="#efeded" d="M 273.5,237.5 C 285.167,237.5 296.833,237.5 308.5,237.5C 308.5,249.5 308.5,261.5 308.5,273.5C 296.833,273.5 285.167,273.5 273.5,273.5C 273.5,261.5 273.5,249.5 273.5,237.5 Z"/></g>
<g><path style="opacity:1" fill="#d80429" d="M 309.5,237.5 C 321.167,237.5 332.833,237.5 344.5,237.5C 344.5,249.5 344.5,261.5 344.5,273.5C 332.833,273.5 321.167,273.5 309.5,273.5C 309.5,261.5 309.5,249.5 309.5,237.5 Z"/></g>
<g><path style="opacity:1" fill="#d70026" d="M 202.5,273.5 C 214.167,273.5 225.833,273.5 237.5,273.5C 237.5,285.167 237.5,296.833 237.5,308.5C 225.833,308.5 214.167,308.5 202.5,308.5C 202.5,296.833 202.5,285.167 202.5,273.5 Z"/></g>
<g><path style="opacity:1" fill="#efeded" d="M 237.5,273.5 C 249.5,273.5 261.5,273.5 273.5,273.5C 273.5,285.167 273.5,296.833 273.5,308.5C 261.5,308.5 249.5,308.5 237.5,308.5C 237.5,296.833 237.5,285.167 237.5,273.5 Z"/></g>
<g><path style="opacity:1" fill="#d70026" d="M 273.5,273.5 C 285.167,273.5 296.833,273.5 308.5,273.5C 308.5,285.167 308.5,296.833 308.5,308.5C 296.833,308.5 285.167,308.5 273.5,308.5C 273.5,296.833 273.5,285.167 273.5,273.5 Z"/></g>
<g><path style="opacity:1" fill="#d80228" d="M 201.5,344.5 C 196.5,344.5 191.5,344.5 186.5,344.5C 186.167,344.5 185.833,344.5 185.5,344.5C 178.027,334.219 172.694,322.886 169.5,310.5C 179.987,309.506 190.654,309.172 201.5,309.5C 201.5,321.167 201.5,332.833 201.5,344.5 Z"/></g>
<g><path style="opacity:1" fill="#eff0ef" d="M 237.5,309.5 C 237.5,321.167 237.5,332.833 237.5,344.5C 225.833,344.5 214.167,344.5 202.5,344.5C 202.5,332.833 202.5,321.167 202.5,309.5C 214.167,309.5 225.833,309.5 237.5,309.5 Z"/></g>
<g><path style="opacity:1" fill="#d80429" d="M 237.5,309.5 C 249.5,309.5 261.5,309.5 273.5,309.5C 273.5,321.167 273.5,332.833 273.5,344.5C 261.5,344.5 249.5,344.5 237.5,344.5C 237.5,332.833 237.5,321.167 237.5,309.5 Z"/></g>
<g><path style="opacity:1" fill="#eff0ef" d="M 273.5,309.5 C 285.167,309.5 296.833,309.5 308.5,309.5C 308.5,321.167 308.5,332.833 308.5,344.5C 296.833,344.5 285.167,344.5 273.5,344.5C 273.5,332.833 273.5,321.167 273.5,309.5 Z"/></g>
<g><path style="opacity:1" fill="#d80328" d="M 341.5,310.5 C 338.315,322.869 332.981,334.203 325.5,344.5C 325.167,344.5 324.833,344.5 324.5,344.5C 319.5,344.5 314.5,344.5 309.5,344.5C 309.5,332.833 309.5,321.167 309.5,309.5C 320.346,309.172 331.013,309.506 341.5,310.5 Z"/></g>
<g><path style="opacity:0.997" fill="#0052b3" d="M 185.5,344.5 C 185.833,344.5 186.167,344.5 186.5,344.5C 190.5,350.5 195.5,355.5 201.5,359.5C 201.5,360.167 201.833,360.5 202.5,360.5C 213.071,367.949 224.737,372.949 237.5,375.5C 238.263,376.268 239.263,376.768 240.5,377C 250.167,377.667 259.833,377.667 269.5,377C 271.058,376.79 272.391,376.29 273.5,375.5C 286.3,373.015 297.967,368.015 308.5,360.5C 309.167,360.5 309.5,360.167 309.5,359.5C 315.5,355.5 320.5,350.5 324.5,344.5C 324.833,344.5 325.167,344.5 325.5,344.5C 382.336,344.168 439.002,344.501 495.5,345.5C 472.929,404.78 433.929,449.946 378.5,481C 346.722,497.855 313.055,508.022 277.5,511.5C 262.5,511.5 247.5,511.5 232.5,511.5C 142.854,500.611 75.3537,456.278 30,378.5C 24.092,367.932 19.2586,356.932 15.5,345.5C 71.9975,344.501 128.664,344.168 185.5,344.5 Z"/></g>
<g><path style="opacity:1" fill="#e9e9ec" d="M 186.5,344.5 C 191.5,344.5 196.5,344.5 201.5,344.5C 201.5,349.5 201.5,354.5 201.5,359.5C 195.5,355.5 190.5,350.5 186.5,344.5 Z"/></g>
<g><path style="opacity:1" fill="#d70027" d="M 202.5,344.5 C 214.167,344.5 225.833,344.5 237.5,344.5C 237.5,354.833 237.5,365.167 237.5,375.5C 224.737,372.949 213.071,367.949 202.5,360.5C 202.5,355.167 202.5,349.833 202.5,344.5 Z"/></g>
<g><path style="opacity:1" fill="#eeeced" d="M 237.5,344.5 C 249.5,344.5 261.5,344.5 273.5,344.5C 273.5,354.833 273.5,365.167 273.5,375.5C 272.391,376.29 271.058,376.79 269.5,377C 259.833,377.667 250.167,377.667 240.5,377C 239.263,376.768 238.263,376.268 237.5,375.5C 237.5,365.167 237.5,354.833 237.5,344.5 Z"/></g>
<g><path style="opacity:1" fill="#d70027" d="M 273.5,344.5 C 285.167,344.5 296.833,344.5 308.5,344.5C 308.5,349.833 308.5,355.167 308.5,360.5C 297.967,368.015 286.3,373.015 273.5,375.5C 273.5,365.167 273.5,354.833 273.5,344.5 Z"/></g>
<g><path style="opacity:1" fill="#e9eaed" d="M 309.5,344.5 C 314.5,344.5 319.5,344.5 324.5,344.5C 320.5,350.5 315.5,355.5 309.5,359.5C 309.5,354.5 309.5,349.5 309.5,344.5 Z"/></g>
</svg>
