<?xml version="1.0" encoding="UTF-8"?>
<!DOCTYPE svg PUBLIC "-//W3C//DTD SVG 1.1//EN" "http://www.w3.org/Graphics/SVG/1.1/DTD/svg11.dtd">
<svg xmlns="http://www.w3.org/2000/svg" version="1.1" width="1200px" height="1200px" style="shape-rendering:geometricPrecision; text-rendering:geometricPrecision; image-rendering:optimizeQuality; fill-rule:evenodd; clip-rule:evenodd" xmlns:xlink="http://www.w3.org/1999/xlink">
<g><path style="opacity:1" fill="#d80027" d="M 565.5,-0.5 C 588.167,-0.5 610.833,-0.5 633.5,-0.5C 648.224,0.616026 662.89,2.28269 677.5,4.5C 677.5,176.833 677.5,349.167 677.5,521.5C 849.833,521.5 1022.17,521.5 1194.5,521.5C 1196.66,535.781 1198.33,550.114 1199.5,564.5C 1199.5,587.833 1199.5,611.167 1199.5,634.5C 1198.25,648.878 1196.59,663.211 1194.5,677.5C 1022.17,677.5 849.833,677.5 677.5,677.5C 677.5,849.833 677.5,1022.17 677.5,1194.5C 662.89,1196.72 648.224,1198.38 633.5,1199.5C 610.833,1199.5 588.167,1199.5 565.5,1199.5C 550.784,1198.31 536.117,1196.65 521.5,1194.5C 521.5,1022.17 521.5,849.833 521.5,677.5C 349.167,677.5 176.833,677.5 4.5,677.5C 2.33788,663.219 0.67121,648.886 -0.5,634.5C -0.5,611.167 -0.5,587.833 -0.5,564.5C 0.626514,550.11 2.29318,535.777 4.5,521.5C 176.833,521.5 349.167,521.5 521.5,521.5C 521.5,349.167 521.5,176.833 521.5,4.5C 536.117,2.35309 550.784,0.686419 565.5,-0.5 Z"/></g>
<g><path style="opacity:0.999" fill="#efefef" d="M 520.5,4.5 C 520.5,176.5 520.5,348.5 520.5,520.5C 348.5,520.5 176.5,520.5 4.5,520.5C 7.57744,494.446 12.5774,468.78 19.5,443.5C 124.237,443.833 228.237,443.5 331.5,442.5C 262.167,372.833 192.833,303.167 123.5,233.5C 128.818,226.186 134.484,219.186 140.5,212.5C 140.369,213.239 140.536,213.906 141,214.5C 217.035,290.368 292.868,366.368 368.5,442.5C 393.003,443.829 417.67,443.829 442.5,442.5C 442.376,441.893 442.043,441.56 441.5,441.5C 353.118,352.118 264.118,263.451 174.5,175.5C 192.954,156.707 212.621,139.374 233.5,123.5C 303.167,192.833 372.833,262.167 442.5,331.5C 443.5,228.237 443.833,124.237 443.5,19.5C 468.78,12.5774 494.446,7.57744 520.5,4.5 Z"/></g>
<g><path style="opacity:0.999" fill="#efefef" d="M 678.5,4.5 C 704.57,7.58079 730.237,12.5808 755.5,19.5C 755.167,124.237 755.5,228.237 756.5,331.5C 826.167,262.167 895.833,192.833 965.5,123.5C 972.814,128.818 979.814,134.484 986.5,140.5C 985.761,140.369 985.094,140.536 984.5,141C 908.632,217.035 832.632,292.868 756.5,368.5C 755.171,393.003 755.171,417.67 756.5,442.5C 757.107,442.376 757.44,442.043 757.5,441.5C 846.882,353.118 935.549,264.118 1023.5,174.5C 1042.29,192.954 1059.63,212.621 1075.5,233.5C 1006.17,303.167 936.833,372.833 867.5,442.5C 970.763,443.5 1074.76,443.833 1179.5,443.5C 1186.42,468.78 1191.42,494.446 1194.5,520.5C 1022.5,520.5 850.5,520.5 678.5,520.5C 678.5,348.5 678.5,176.5 678.5,4.5 Z"/></g>
<g><path style="opacity:1" fill="#0252b4" d="M 441.5,20.5 C 442.499,123.999 442.833,227.665 442.5,331.5C 372.833,262.167 303.167,192.833 233.5,123.5C 295.648,75.4273 364.982,41.0939 441.5,20.5 Z"/></g>
<g><path style="opacity:1" fill="#7da4d3" d="M 441.5,20.5 C 441.842,19.6618 442.508,19.3284 443.5,19.5C 443.833,124.237 443.5,228.237 442.5,331.5C 442.833,227.665 442.499,123.999 441.5,20.5 Z"/></g>
<g><path style="opacity:1" fill="#7ca4d3" d="M 755.5,19.5 C 756.492,19.3284 757.158,19.6618 757.5,20.5C 756.501,123.999 756.167,227.665 756.5,331.5C 755.5,228.237 755.167,124.237 755.5,19.5 Z"/></g>
<g><path style="opacity:1" fill="#0352b4" d="M 757.5,20.5 C 834.018,41.0939 903.352,75.4273 965.5,123.5C 895.833,192.833 826.167,262.167 756.5,331.5C 756.167,227.665 756.501,123.999 757.5,20.5 Z"/></g>
<g><path style="opacity:1" fill="#d80628" d="M 986.5,140.5 C 999.459,151.125 1011.79,162.458 1023.5,174.5C 935.549,264.118 846.882,353.118 757.5,441.5C 756.502,417.339 756.169,393.006 756.5,368.5C 832.632,292.868 908.632,217.035 984.5,141C 985.094,140.536 985.761,140.369 986.5,140.5 Z"/></g>
<g><path style="opacity:1" fill="#d80528" d="M 174.5,175.5 C 264.118,263.451 353.118,352.118 441.5,441.5C 417.339,442.498 393.006,442.831 368.5,442.5C 292.868,366.368 217.035,290.368 141,214.5C 140.536,213.906 140.369,213.239 140.5,212.5C 141.167,211.167 142.167,210.167 143.5,209.5C 145.587,208.415 146.92,206.749 147.5,204.5C 148.167,203.167 149.167,202.167 150.5,201.5C 152.587,200.415 153.92,198.749 154.5,196.5C 156.5,193.833 158.833,191.5 161.5,189.5C 165.898,186.105 169.564,182.105 172.5,177.5C 172.833,176.5 173.5,175.833 174.5,175.5 Z"/></g>
<g><path style="opacity:0.847" fill="#e45366" d="M 172.5,177.5 C 169.564,182.105 165.898,186.105 161.5,189.5C 164.436,184.895 168.102,180.895 172.5,177.5 Z"/></g>
<g><path style="opacity:0.839" fill="#ed7683" d="M 154.5,196.5 C 153.92,198.749 152.587,200.415 150.5,201.5C 151.08,199.251 152.413,197.585 154.5,196.5 Z"/></g>
<g><path style="opacity:0.859" fill="#e87785" d="M 147.5,204.5 C 146.92,206.749 145.587,208.415 143.5,209.5C 144.08,207.251 145.413,205.585 147.5,204.5 Z"/></g>
<g><path style="opacity:1" fill="#0252b4" d="M 123.5,233.5 C 192.833,303.167 262.167,372.833 331.5,442.5C 227.665,442.833 123.999,442.499 20.5,441.5C 41.0939,364.982 75.4273,295.648 123.5,233.5 Z"/></g>
<g><path style="opacity:1" fill="#0352b4" d="M 1075.5,233.5 C 1123.57,295.648 1157.91,364.982 1178.5,441.5C 1075,442.499 971.335,442.833 867.5,442.5C 936.833,372.833 1006.17,303.167 1075.5,233.5 Z"/></g>
<g><path style="opacity:1" fill="#e47d90" d="M 756.5,368.5 C 756.169,393.006 756.502,417.339 757.5,441.5C 757.44,442.043 757.107,442.376 756.5,442.5C 755.171,417.67 755.171,393.003 756.5,368.5 Z"/></g>
<g><path style="opacity:1" fill="#80a6d4" d="M 20.5,441.5 C 123.999,442.499 227.665,442.833 331.5,442.5C 228.237,443.5 124.237,443.833 19.5,443.5C 19.3284,442.508 19.6618,441.842 20.5,441.5 Z"/></g>
<g><path style="opacity:1" fill="#e58092" d="M 441.5,441.5 C 442.043,441.56 442.376,441.893 442.5,442.5C 417.67,443.829 393.003,443.829 368.5,442.5C 393.006,442.831 417.339,442.498 441.5,441.5 Z"/></g>
<g><path style="opacity:1" fill="#80a6d4" d="M 1178.5,441.5 C 1179.34,441.842 1179.67,442.508 1179.5,443.5C 1074.76,443.833 970.763,443.5 867.5,442.5C 971.335,442.833 1075,442.499 1178.5,441.5 Z"/></g>
<g><path style="opacity:1" fill="#e9b0ba" d="M 520.5,4.5 C 520.833,4.5 521.167,4.5 521.5,4.5C 521.5,176.833 521.5,349.167 521.5,521.5C 349.167,521.5 176.833,521.5 4.5,521.5C 4.5,521.167 4.5,520.833 4.5,520.5C 176.5,520.5 348.5,520.5 520.5,520.5C 520.5,348.5 520.5,176.5 520.5,4.5 Z"/></g>
<g><path style="opacity:1" fill="#e9b0ba" d="M 677.5,4.5 C 677.833,4.5 678.167,4.5 678.5,4.5C 678.5,176.5 678.5,348.5 678.5,520.5C 850.5,520.5 1022.5,520.5 1194.5,520.5C 1194.5,520.833 1194.5,521.167 1194.5,521.5C 1022.17,521.5 849.833,521.5 677.5,521.5C 677.5,349.167 677.5,176.833 677.5,4.5 Z"/></g>
<g><path style="opacity:0.999" fill="#efefef" d="M 4.5,678.5 C 176.5,678.5 348.5,678.5 520.5,678.5C 520.5,850.5 520.5,1022.5 520.5,1194.5C 494.446,1191.42 468.78,1186.42 443.5,1179.5C 443.833,1074.76 443.5,970.763 442.5,867.5C 372.833,936.833 303.167,1006.17 233.5,1075.5C 226.52,1070.52 219.854,1065.18 213.5,1059.5C 289.5,982.833 365.833,906.5 442.5,830.5C 443.829,805.997 443.829,781.33 442.5,756.5C 441.893,756.624 441.56,756.957 441.5,757.5C 352.118,845.882 263.451,934.882 175.5,1024.5C 156.707,1006.05 139.374,986.379 123.5,965.5C 192.833,895.833 262.167,826.167 331.5,756.5C 228.237,755.5 124.237,755.167 19.5,755.5C 12.5774,730.22 7.57744,704.554 4.5,678.5 Z"/></g>
<g><path style="opacity:1" fill="#e9b0ba" d="M 4.5,678.5 C 4.5,678.167 4.5,677.833 4.5,677.5C 176.833,677.5 349.167,677.5 521.5,677.5C 521.5,849.833 521.5,1022.17 521.5,1194.5C 521.167,1194.5 520.833,1194.5 520.5,1194.5C 520.5,1022.5 520.5,850.5 520.5,678.5C 348.5,678.5 176.5,678.5 4.5,678.5 Z"/></g>
<g><path style="opacity:1" fill="#e9b0ba" d="M 1194.5,677.5 C 1194.5,677.833 1194.5,678.167 1194.5,678.5C 1022.5,678.5 850.5,678.5 678.5,678.5C 678.5,850.5 678.5,1022.5 678.5,1194.5C 678.167,1194.5 677.833,1194.5 677.5,1194.5C 677.5,1022.17 677.5,849.833 677.5,677.5C 849.833,677.5 1022.17,677.5 1194.5,677.5 Z"/></g>
<g><path style="opacity:0.999" fill="#efefef" d="M 1194.5,678.5 C 1191.42,704.554 1186.42,730.22 1179.5,755.5C 1074.76,755.167 970.763,755.5 867.5,756.5C 936.833,826.167 1006.17,895.833 1075.5,965.5C 1070.18,972.814 1064.52,979.814 1058.5,986.5C 1058.63,985.761 1058.46,985.094 1058,984.5C 981.965,908.632 906.132,832.632 830.5,756.5C 805.997,755.171 781.33,755.171 756.5,756.5C 756.624,757.107 756.957,757.44 757.5,757.5C 846.14,846.473 934.806,935.473 1023.5,1024.5C 1005.38,1042.96 986.045,1059.96 965.5,1075.5C 895.833,1006.17 826.167,936.833 756.5,867.5C 755.501,971.332 755.167,1075.33 755.5,1179.5C 730.22,1186.42 704.554,1191.42 678.5,1194.5C 678.5,1022.5 678.5,850.5 678.5,678.5C 850.5,678.5 1022.5,678.5 1194.5,678.5 Z"/></g>
<g><path style="opacity:1" fill="#80a6d4" d="M 19.5,755.5 C 124.237,755.167 228.237,755.5 331.5,756.5C 227.665,756.167 123.999,756.501 20.5,757.5C 19.6618,757.158 19.3284,756.492 19.5,755.5 Z"/></g>
<g><path style="opacity:1" fill="#e58092" d="M 830.5,756.5 C 805.994,756.169 781.661,756.502 757.5,757.5C 756.957,757.44 756.624,757.107 756.5,756.5C 781.33,755.171 805.997,755.171 830.5,756.5 Z"/></g>
<g><path style="opacity:1" fill="#80a6d4" d="M 1179.5,755.5 C 1179.67,756.492 1179.34,757.158 1178.5,757.5C 1075,756.501 971.335,756.167 867.5,756.5C 970.763,755.5 1074.76,755.167 1179.5,755.5 Z"/></g>
<g><path style="opacity:1" fill="#0352b4" d="M 331.5,756.5 C 262.167,826.167 192.833,895.833 123.5,965.5C 75.4273,903.352 41.0939,834.018 20.5,757.5C 123.999,756.501 227.665,756.167 331.5,756.5 Z"/></g>
<g><path style="opacity:1" fill="#e47d90" d="M 441.5,757.5 C 441.56,756.957 441.893,756.624 442.5,756.5C 443.829,781.33 443.829,805.997 442.5,830.5C 442.831,805.994 442.498,781.661 441.5,757.5 Z"/></g>
<g><path style="opacity:1" fill="#d80328" d="M 757.5,757.5 C 781.661,756.502 805.994,756.169 830.5,756.5C 906.132,832.632 981.965,908.632 1058,984.5C 1058.46,985.094 1058.63,985.761 1058.5,986.5C 1047.54,999.793 1035.87,1012.46 1023.5,1024.5C 934.806,935.473 846.14,846.473 757.5,757.5 Z"/></g>
<g><path style="opacity:1" fill="#0352b4" d="M 867.5,756.5 C 971.335,756.167 1075,756.501 1178.5,757.5C 1157.91,834.018 1123.57,903.352 1075.5,965.5C 1006.17,895.833 936.833,826.167 867.5,756.5 Z"/></g>
<g><path style="opacity:1" fill="#d80628" d="M 441.5,757.5 C 442.498,781.661 442.831,805.994 442.5,830.5C 365.833,906.5 289.5,982.833 213.5,1059.5C 211.833,1058.5 210.5,1057.17 209.5,1055.5C 208.415,1053.41 206.749,1052.08 204.5,1051.5C 198.871,1047.54 193.871,1042.87 189.5,1037.5C 187.1,1034.1 184.1,1031.43 180.5,1029.5C 178.5,1028.17 176.833,1026.5 175.5,1024.5C 263.451,934.882 352.118,845.882 441.5,757.5 Z"/></g>
<g><path style="opacity:1" fill="#7ca4d3" d="M 443.5,1179.5 C 442.508,1179.67 441.842,1179.34 441.5,1178.5C 442.499,1075 442.833,971.335 442.5,867.5C 443.5,970.763 443.833,1074.76 443.5,1179.5 Z"/></g>
<g><path style="opacity:1" fill="#7da4d3" d="M 756.5,867.5 C 756.167,971.335 756.501,1075 757.5,1178.5C 757.158,1179.34 756.492,1179.67 755.5,1179.5C 755.167,1075.33 755.501,971.332 756.5,867.5 Z"/></g>
<g><path style="opacity:1" fill="#0352b4" d="M 442.5,867.5 C 442.833,971.335 442.499,1075 441.5,1178.5C 364.982,1157.91 295.648,1123.57 233.5,1075.5C 303.167,1006.17 372.833,936.833 442.5,867.5 Z"/></g>
<g><path style="opacity:1" fill="#0352b4" d="M 756.5,867.5 C 826.167,936.833 895.833,1006.17 965.5,1075.5C 903.352,1123.57 834.018,1157.91 757.5,1178.5C 756.501,1075 756.167,971.335 756.5,867.5 Z"/></g>
<g><path style="opacity:0.957" fill="#e35468" d="M 180.5,1029.5 C 184.1,1031.43 187.1,1034.1 189.5,1037.5C 185.9,1035.57 182.9,1032.9 180.5,1029.5 Z"/></g>
<g><path style="opacity:0.973" fill="#ea7682" d="M 204.5,1051.5 C 206.749,1052.08 208.415,1053.41 209.5,1055.5C 207.251,1054.92 205.585,1053.59 204.5,1051.5 Z"/></g>
</svg>
