<svg width="40" height="40" viewBox="0 0 40 40" fill="none" xmlns="http://www.w3.org/2000/svg">
    <g clip-path="url(#2dnrz53w9a)">
        <path fill-rule="evenodd" clip-rule="evenodd" d="M20 21.25c2.717 0 5.117.65 7.067 1.5 1.8.8 2.933 2.6 2.933 4.55V30H10v-2.683c0-1.967 1.133-3.767 2.933-4.55A17.4 17.4 0 0 1 20 21.25zm-13.333.417c1.833 0 3.333-1.5 3.333-3.334C10 16.5 8.5 15 6.667 15a3.343 3.343 0 0 0-3.334 3.333c0 1.834 1.5 3.334 3.334 3.334zM8.55 23.5c-.617-.1-1.233-.167-1.883-.167-1.65 0-3.217.35-4.634.967A3.35 3.35 0 0 0 0 27.383V30h7.5v-2.683c0-1.384.383-2.684 1.05-3.817zm24.783-1.833c1.834 0 3.334-1.5 3.334-3.334 0-1.833-1.5-3.333-3.334-3.333A3.343 3.343 0 0 0 30 18.333c0 1.834 1.5 3.334 3.333 3.334zM40 27.383c0-1.35-.8-2.55-2.033-3.083a11.584 11.584 0 0 0-4.634-.967c-.65 0-1.266.067-1.883.167a7.497 7.497 0 0 1 1.05 3.817V30H40v-2.617zM20 10c2.767 0 5 2.233 5 5s-2.233 5-5 5-5-2.233-5-5 2.233-5 5-5z" fill="#374DF5"/>
    </g>
    <defs>
        <clipPath id="2dnrz53w9a">
            <path fill="#fff" d="M0 0h40v40H0z"/>
        </clipPath>
    </defs>
</svg>
