<svg width="16" height="16" viewBox="0 0 16 16" fill="none" xmlns="http://www.w3.org/2000/svg">
<g clip-path="url(#clip0_406_5062)">
<path fill-rule="evenodd" clip-rule="evenodd" d="M14.2682 8.53332C14.2871 8.36189 14.2871 8.19046 14.2871 7.99999C14.2871 4.38094 11.4259 1.42856 7.9059 1.42856C4.3859 1.42856 1.52472 4.38094 1.52472 7.99999C1.52472 11.619 4.3859 14.5714 7.9059 14.5714C11.2377 14.5524 13.9859 11.9047 14.2682 8.53332ZM13.1577 6.2857C13.0447 6.22856 12.9318 6.17142 12.8377 6.13332C12.1412 5.8857 11.3506 5.99999 10.8047 6.26665C10.6353 6.03808 10.4471 5.80951 10.24 5.58094C11.1247 4.89523 11.633 4.57142 12.0847 4.30475C12.5553 4.87618 12.9318 5.54284 13.1577 6.2857ZM13.3835 8.51427C13.3271 9.27618 13.1012 9.98094 12.7812 10.6286C12.5741 9.37142 12.0847 8.19046 11.313 7.02856C11.633 6.89523 12.1035 6.83808 12.5365 6.99046C13.0824 7.18094 13.3647 7.69523 13.3835 8.51427ZM8.99766 4.3238C9.31766 3.94284 9.46825 3.46665 9.44942 2.99046C9.4306 2.81903 9.41178 2.66665 9.35531 2.51427C10.1271 2.74284 10.8424 3.1238 11.4447 3.65713C10.993 3.9238 10.4659 4.2857 9.63766 4.93332C9.41178 4.70475 9.20472 4.51427 8.99766 4.3238ZM8.09413 2.3238C8.37648 2.49523 8.5459 2.74284 8.56472 3.04761C8.58354 3.29523 8.48942 3.56189 8.30119 3.77142C7.56707 3.23808 6.79531 2.89522 5.94825 2.6857C6.5506 2.43808 7.20942 2.3238 7.9059 2.3238C7.96237 2.3238 8.01884 2.3238 8.09413 2.3238ZM4.7059 3.39046C5.79766 3.4857 6.70119 3.77142 7.56707 4.34284C6.73884 4.79999 5.85413 5.02856 5.00707 5.21903C4.21648 5.40951 3.46354 5.59999 2.7859 5.96189C3.16237 4.91427 3.84001 4.01903 4.7059 3.39046ZM2.44707 7.31427C3.1059 6.59046 4.08472 6.34284 5.19531 6.07618C6.17413 5.82856 7.28472 5.56189 8.32001 4.89522C8.52707 5.06665 8.73413 5.25713 8.94119 5.46665C6.32472 7.59999 4.42354 9.9238 3.40707 11.219C2.7859 10.3047 2.40943 9.18094 2.40943 7.96189C2.3906 7.77141 2.40943 7.54284 2.44707 7.31427ZM3.97178 11.9619C4.9506 10.7047 6.8706 8.3238 9.54354 6.13332C9.7506 6.38094 9.95766 6.60951 10.1271 6.85713C9.14825 8.13332 8.94119 8.93332 8.48942 11.0286C8.28237 12.0381 7.84942 12.9714 7.30354 13.6381C6.00472 13.4857 4.83766 12.8762 3.97178 11.9619ZM8.37648 13.6381C8.80942 12.9333 9.14825 12.0952 9.33648 11.219C9.7506 9.31427 9.92001 8.62856 10.6541 7.61903C11.5012 8.93332 11.9341 10.3047 12.0094 11.7524C11.1059 12.819 9.8259 13.5238 8.37648 13.6381Z" fill="white"/>
</g>
<defs>
<clipPath id="clip0_406_5062">
<rect width="16" height="16" fill="white"/>
</clipPath>
</defs>
</svg>
