<svg width="16" height="16" viewBox="0 0 16 16" fill="none" xmlns="http://www.w3.org/2000/svg">
<g clip-path="url(#clip0_406_5053)">
<path fill-rule="evenodd" clip-rule="evenodd" d="M2.76706 2.8C5.59059 -0.0761947 10.2024 -0.0761947 13.0447 2.8C15.8682 5.65714 15.8682 10.3238 13.0447 13.2C10.2024 16.0762 5.60941 16.0571 2.76706 13.2C-0.0564682 10.3429 -0.0564682 5.65714 2.76706 2.8ZM10.7671 2.3619C8.41412 1.14285 5.44 1.54285 3.48236 3.5238C1.50588 5.5238 1.12941 8.51428 2.33412 10.8952L3.55765 10.3809L5.55294 12.4L5.04471 13.6381C7.39765 14.8571 10.3529 14.4571 12.3294 12.4762C14.2871 10.4762 14.6635 7.46666 13.4776 5.08571L12.2541 5.6L10.2588 3.58095L10.7671 2.3619ZM11.2753 7.94285L12.2165 10.3619L10.24 12.3619L7.86824 11.4286L8.48941 8.59047L11.2753 7.94285ZM5.44 3.65714L7.79294 4.66666L7.28471 7.37142L4.59294 7.86666L3.61412 5.50476L5.44 3.65714Z" fill="white"/>
</g>
<defs>
<clipPath id="clip0_406_5053">
<rect width="16" height="16" fill="white"/>
</clipPath>
</defs>
</svg>
