<svg width="24" height="24" viewBox="0 0 24 24" fill="none" xmlns="http://www.w3.org/2000/svg">
    <g clip-path="url(#b4m5smu51a)">
        <path fill-rule="evenodd" clip-rule="evenodd" d="M21.402 12.8c.029-.257.029-.514.029-.8 0-5.429-4.292-9.857-9.572-9.857-5.28 0-9.572 4.428-9.572 9.857 0 5.428 4.292 9.857 9.572 9.857 4.998-.029 9.12-4 9.543-9.057zm-1.666-3.371a6.875 6.875 0 0 0-.48-.229c-1.044-.371-2.23-.2-3.049.2a13.595 13.595 0 0 0-.847-1.029c1.327-1.028 2.09-1.514 2.767-1.914a8.631 8.631 0 0 1 1.61 2.972zm.34 3.342c-.085 1.143-.424 2.2-.904 3.172-.31-1.886-1.045-3.657-2.203-5.4.48-.2 1.186-.286 1.836-.057.819.285 1.242 1.057 1.27 2.285zm-6.58-6.285c.48-.572.706-1.286.678-2-.028-.257-.056-.486-.141-.715a8.231 8.231 0 0 1 3.134 1.715c-.678.4-1.468.943-2.71 1.914a26.68 26.68 0 0 0-.96-.914zm-1.355-3c.424.257.678.628.706 1.085.028.372-.113.772-.395 1.086a9.932 9.932 0 0 0-3.53-1.628c.904-.372 1.892-.543 2.937-.543h.282zm-5.082 1.6c1.638.143 2.993.571 4.292 1.428-1.243.686-2.57 1.029-3.84 1.315-1.186.285-2.316.571-3.332 1.114a8.19 8.19 0 0 1 2.88-3.857zM3.67 10.97c.988-1.085 2.456-1.457 4.122-1.857 1.468-.371 3.134-.771 4.687-1.771.31.257.621.543.932.857-3.925 3.2-6.777 6.686-8.301 8.628a8.68 8.68 0 0 1-1.497-4.885 3.89 3.89 0 0 1 .057-.972zm2.287 6.972c1.468-1.886 4.348-5.457 8.357-8.743.31.371.622.714.876 1.086-1.469 1.914-1.78 3.114-2.457 6.257-.31 1.514-.96 2.914-1.779 3.914a8.192 8.192 0 0 1-4.997-2.514zm6.607 2.514a11.729 11.729 0 0 0 1.44-3.629c.62-2.857.875-3.885 1.976-5.4 1.27 1.972 1.92 4.03 2.033 6.2-1.355 1.6-3.275 2.658-5.45 2.83z" fill="#121212"/>
    </g>
    <defs>
        <clipPath id="b4m5smu51a">
            <path fill="#fff" d="M0 0h24v24H0z"/>
        </clipPath>
    </defs>
</svg>
