<svg width="16" height="16" viewBox="0 0 16 16" fill="none" xmlns="http://www.w3.org/2000/svg">
<g clip-path="url(#clip0_406_5071)">
<path fill-rule="evenodd" clip-rule="evenodd" d="M6.7953 2.53333C9.9953 2.53333 11.3318 4.66666 11.5388 6.34285H12.0094C12.2541 6.34285 12.4424 6.53333 12.4424 6.78094C12.4424 7.02856 12.2541 7.21904 12.0094 7.21904H11.5765V9.06666C11.5765 9.29523 11.5765 9.5238 11.5953 9.73333H13.4212C14.08 9.73333 14.1365 10.2667 14.1553 10.4381V12.7048C14.1553 13.219 13.9106 13.4476 13.4024 13.4476C12.8753 13.4476 11.2941 13.219 10.8424 10.6476H9.44942C9.26118 12.8762 7.62353 13.0667 7.09648 13.0667C6.26824 13.0667 5.57177 12.7238 4.95059 12.0381C4.81883 11.9048 4.66824 11.6762 4.5553 11.5048C4.51765 11.4667 4.48 11.4095 4.46118 11.3714L4.41098 11.3206L3.31295 11.3143C3.04942 11.3143 2.56 11.2 2.40942 10.4571C2.35295 10.2286 2.27765 9.99999 2.18353 9.71428C1.95765 9.08571 1.69412 8.30475 1.69412 7.29523C1.69412 5.00952 3.65177 2.53333 6.7953 2.53333ZM13.2518 10.6476H11.7082C11.9529 11.8095 12.48 12.4952 13.2518 12.5524V10.6476ZM6.77648 3.44761C4.17883 3.44761 2.56 5.44761 2.56 7.31428C2.56 8.17142 2.78589 8.83809 2.99295 9.42856C3.08706 9.71428 3.18118 9.99999 3.23765 10.2667C3.25648 10.3619 3.25648 10.4 3.2753 10.419H4.36706C4.68706 10.419 4.93177 10.5524 5.13883 10.8381C5.17648 10.8762 5.21412 10.9333 5.25177 10.9905C5.34589 11.1428 5.47765 11.3333 5.57177 11.4286C6.1553 12.0952 6.68236 12.1714 7.07765 12.1714C8.05648 12.1714 8.56471 11.5238 8.56471 10.2476V10.1912L8.55425 9.86736C8.5417 9.6529 8.52079 9.44126 8.50824 9.23809C8.43295 8.39999 8.37647 7.59999 8.88471 7.02856C9.24236 6.64761 9.78824 6.43809 10.6353 6.38094C10.4659 5.18094 9.50589 3.44761 6.77648 3.44761ZM6.96471 9.73333C7.45412 9.73333 7.84942 10.1333 7.84942 10.6286C7.84942 11.1238 7.45412 11.5238 6.96471 11.5238C6.4753 11.5238 6.08 11.1238 6.08 10.6286C6.08 10.1333 6.4753 9.73333 6.96471 9.73333ZM10.6729 7.23809C10.0894 7.27618 9.71295 7.39047 9.52471 7.59999C9.28 7.88571 9.31765 8.43809 9.37412 9.14285C9.39295 9.31428 9.39295 9.5238 9.41177 9.73333H10.6918C10.6729 9.5238 10.6729 9.29523 10.6729 9.06666V7.23809Z" fill="white"/>
</g>
<defs>
<clipPath id="clip0_406_5071">
<rect width="16" height="16" fill="white"/>
</clipPath>
</defs>
</svg>
