<svg width="132" height="20" viewBox="0 0 132 20" fill="none" xmlns="http://www.w3.org/2000/svg">
<g clip-path="url(#clip0_406_14164)">
<path fill-rule="evenodd" clip-rule="evenodd" d="M19.8649 0C19.945 0 20.01 0.0650325 20.01 0.145073H20V4.85743C20 4.93747 19.935 5.0025 19.8549 5.0025H5.14257C5.06253 5.0025 4.9975 5.06753 4.9975 5.14757V9.85493C4.9975 9.93497 4.93247 10 4.85243 10H0.145073C0.0650325 10 0 9.93497 0 9.85493V0.145073C0 0.0650325 0.0650325 0 0.145073 0H19.8649ZM15.1526 10.005C15.0725 10.005 15.0075 10.07 15.0075 10.1501V14.8574C15.0075 14.9375 14.9425 15.0025 14.8624 15.0025H0.145073C0.0650325 15.0025 0 15.0675 0 15.1476V19.8549C0 19.935 0.0650325 20 0.145073 20H19.8599C19.94 20 20.005 19.935 20.005 19.8549V10.1501C20.005 10.07 19.94 10.005 19.8599 10.005H15.1526ZM33.3317 8.42421C34.8674 8.51426 36.088 8.75938 36.9935 9.15458C37.904 9.54978 38.5593 10.095 38.9595 10.7804C39.3647 11.4707 39.5648 12.3062 39.5648 13.2816C39.5648 14.3072 39.2997 15.2076 38.7644 15.993C38.2291 16.7734 37.4787 17.3887 36.5183 17.8289C35.5578 18.2741 34.4572 18.4942 33.2166 18.4942C32.056 18.4942 30.9905 18.2941 30.02 17.899C29.0495 17.5038 28.2541 16.8985 27.6338 16.083C27.0285 15.2926 26.6833 14.3072 26.5933 13.1316C26.5883 13.0765 26.6333 13.0265 26.6933 13.0265H29.6148C29.6648 13.0265 29.7099 13.0615 29.7149 13.1116C29.8499 13.997 30.2251 14.6523 30.8404 15.0825C31.4757 15.5278 32.2761 15.7479 33.2366 15.7479C34.2721 15.7479 35.0775 15.5328 35.6428 15.1076C36.2081 14.6823 36.4932 14.1121 36.4932 13.3967C36.4932 12.6713 36.2281 12.1261 35.6928 11.7709C35.1576 11.4157 34.2871 11.2006 33.0765 11.1206C31.8359 11.0455 30.7604 10.8504 29.8549 10.5403C28.9495 10.2301 28.2441 9.73987 27.7389 9.07454C27.2336 8.40921 26.9835 7.50875 26.9835 6.37819C26.9835 5.41771 27.2386 4.56728 27.7489 3.83192C28.2591 3.09655 28.9545 2.52126 29.8299 2.11106C30.7104 1.70085 31.7059 1.49575 32.8214 1.49575C34.6523 1.49575 36.1431 1.95098 37.2886 2.86643C38.4092 3.76188 39.0545 5.02751 39.2296 6.66333C39.2346 6.72336 39.1896 6.77339 39.1296 6.77339H36.2081C36.1581 6.77339 36.1181 6.73837 36.1081 6.68834C35.988 5.90795 35.6478 5.30765 35.0875 4.88744C34.5023 4.45223 33.7319 4.23712 32.7714 4.23712C31.901 4.23712 31.2256 4.43722 30.7354 4.83242C30.2501 5.22761 30.005 5.71786 30.005 6.30815C30.005 6.94347 30.2401 7.43372 30.7154 7.78389C31.1856 8.13407 32.061 8.34918 33.3317 8.42421ZM49.6248 6.48324C48.7194 5.993 47.7289 5.75288 46.6583 5.75288C45.5578 5.75288 44.5573 5.998 43.6568 6.48324C42.7564 6.97349 42.046 7.68885 41.5158 8.63432C40.9905 9.57979 40.7254 10.7354 40.7254 12.1011C40.7254 13.4667 40.9905 14.6223 41.5158 15.5678C42.041 16.5133 42.7564 17.2336 43.6568 17.7289C44.5573 18.2241 45.5578 18.4742 46.6583 18.4742C47.7289 18.4742 48.7194 18.2241 49.6248 17.7289C50.5303 17.2336 51.2556 16.5133 51.8009 15.5678C52.3412 14.6223 52.6163 13.4667 52.6163 12.1011C52.6163 10.7354 52.3462 9.57979 51.8009 8.63432C51.2606 7.68885 50.5353 6.96848 49.6248 6.48324ZM48.7994 14.8074C48.2741 15.4377 47.5588 15.7479 46.6583 15.7479C45.7579 15.7479 45.0475 15.4327 44.5323 14.8074C44.012 14.1771 43.7519 13.2816 43.7519 12.1211C43.7519 10.9405 44.017 10.04 44.5423 9.40971C45.0675 8.77939 45.7729 8.46924 46.6583 8.46924C47.5588 8.46924 48.2691 8.78439 48.7994 9.40971C49.3247 10.04 49.5898 10.9405 49.5898 12.1211C49.5898 13.2866 49.3297 14.1821 48.7994 14.8074ZM55.1526 4.07704C55.1526 2.97149 55.4627 2.15608 56.0931 1.62081C56.7234 1.08554 57.5088 0.815408 58.4542 0.815408H61.1456C61.2006 0.815408 61.2456 0.86043 61.2456 0.915458V3.45673C61.2456 3.51176 61.2006 3.55678 61.1456 3.55678H59.0145C58.3942 3.55678 58.084 3.92196 58.084 4.65233V5.87794C58.084 5.93297 58.1291 5.97799 58.1841 5.97799H61.1456C61.2006 5.97799 61.2456 6.02301 61.2456 6.07804V8.62431C61.2456 8.67934 61.2006 8.72436 61.1456 8.72436H58.1841C58.1291 8.72436 58.084 8.76938 58.084 8.82441V18.1641C58.084 18.2191 58.039 18.2641 57.984 18.2641H55.2526C55.1976 18.2641 55.1526 18.2191 55.1526 18.1641V8.82942C55.1526 8.77439 55.1076 8.72937 55.0525 8.72937H53.3467C53.2916 8.72937 53.2466 8.68434 53.2466 8.62931V6.08304C53.2466 6.02801 53.2916 5.98299 53.3467 5.98299H55.0525C55.1076 5.98299 55.1526 5.93797 55.1526 5.88294V4.07704ZM71.5858 6.95848C70.6003 6.15308 69.2696 5.74787 67.5988 5.74787C66.6233 5.74787 65.7379 5.91296 64.9475 6.23812C64.1571 6.56328 63.5118 7.03852 63.0165 7.65883C62.5413 8.25413 62.2511 8.95948 62.1461 9.77989C62.1361 9.83992 62.1861 9.88995 62.2461 9.88995H65.0275C65.0775 9.88995 65.1176 9.85493 65.1276 9.80991C65.2326 9.33467 65.4727 8.96448 65.8579 8.69435C66.2631 8.40921 66.8334 8.26413 67.5788 8.26413C69.2846 8.26413 70.1401 8.97949 70.1401 10.4052V10.5853C70.1401 10.6403 70.095 10.6853 70.04 10.6853H66.9085C65.3877 10.6853 64.1821 11.0355 63.2916 11.7309C62.4012 12.4312 61.956 13.3967 61.956 14.6373C61.956 15.4127 62.0961 16.053 62.3762 16.5583C62.6563 17.0635 63.0165 17.4637 63.4567 17.7539C63.8969 18.049 64.3822 18.2541 64.9125 18.3692C65.4377 18.4842 65.943 18.5443 66.4232 18.5443C67.5238 18.5443 68.4442 18.3292 69.1796 17.904C69.5748 17.6738 69.915 17.4087 70.2051 17.0986C70.2651 17.0335 70.3802 17.0785 70.3802 17.1686V18.1691C70.3802 18.2241 70.4252 18.2691 70.4802 18.2691H72.9765C73.0315 18.2691 73.0765 18.2241 73.0765 18.1691V10.4002C73.0615 8.90946 72.5713 7.76388 71.5858 6.95848ZM68.4342 15.7979C67.954 16.013 67.4887 16.1231 67.0385 16.1231C66.4032 16.1231 65.893 15.993 65.5028 15.7379C65.1126 15.4827 64.9225 15.0925 64.9225 14.5623C64.9225 14.052 65.1126 13.6618 65.4927 13.4017C65.8729 13.1366 66.4732 13.0065 67.2936 13.0065H70.03C70.085 13.0065 70.1301 13.0515 70.1301 13.1066V13.1716C70.1301 13.8369 69.965 14.3872 69.6398 14.8224C69.3197 15.2526 68.9145 15.5778 68.4342 15.7979ZM80.2051 10.7754C82.066 10.8804 83.4017 11.2206 84.2071 11.7859C85.0125 12.3512 85.4127 13.2216 85.4277 14.4122C85.4277 15.1926 85.2176 15.8879 84.7974 16.5083C84.3772 17.1286 83.7719 17.6188 82.9715 17.974C82.1711 18.3292 81.2056 18.5093 80.075 18.5093C79.0495 18.5093 78.1241 18.3642 77.2936 18.069C76.4632 17.7739 75.7929 17.3337 75.2826 16.7434C74.7924 16.1781 74.5123 15.4577 74.4522 14.5923C74.4472 14.5373 74.4922 14.4872 74.5523 14.4872H77.3137C77.3637 14.4872 77.4037 14.5223 77.4137 14.5673C77.4938 15.0525 77.7689 15.4077 78.2491 15.6378C78.7544 15.8779 79.3697 15.998 80.1001 15.998C80.9205 15.998 81.5208 15.8679 81.9009 15.6128C82.2811 15.3577 82.4712 15.0125 82.4712 14.5773C82.4712 14.1421 82.3012 13.8219 81.961 13.6118C81.6158 13.4017 80.9405 13.2716 79.935 13.2266C78.8494 13.1766 77.919 13.0365 77.1436 12.8064C76.3682 12.5763 75.7729 12.2011 75.3527 11.6908C74.9325 11.1806 74.7224 10.4902 74.7224 9.61981C74.7224 8.84442 74.9375 8.16909 75.3627 7.5938C75.7879 7.01851 76.3782 6.56828 77.1286 6.24312C77.8789 5.91796 78.7444 5.75288 79.7199 5.75288C81.2706 5.75288 82.5213 6.10305 83.4767 6.7984C84.4022 7.47374 84.9375 8.42421 85.0825 9.63982C85.0875 9.69985 85.0425 9.74988 84.9825 9.74988H82.2011C82.1511 9.74988 82.1111 9.71486 82.1011 9.66984C82.026 9.21461 81.7809 8.86944 81.3707 8.63432C80.9355 8.3892 80.3852 8.26413 79.7199 8.26413C79.0195 8.26413 78.4993 8.38419 78.1491 8.61431C77.7989 8.84442 77.6238 9.14958 77.6238 9.51976C77.6238 9.78489 77.6938 10 77.8239 10.1701C77.954 10.3402 78.2091 10.4752 78.5793 10.5753C78.9495 10.6803 79.4897 10.7454 80.2051 10.7754ZM93.997 15.3327C93.5018 15.6128 92.9665 15.7529 92.3912 15.7529C91.4907 15.7529 90.7804 15.4427 90.2651 14.8224C89.7449 14.2021 89.4847 13.3017 89.4847 12.1261C89.4847 10.9455 89.7499 10.045 90.2751 9.41471C90.8004 8.78439 91.5058 8.47424 92.3912 8.47424C93.0415 8.47424 93.5918 8.63932 94.042 8.96448C94.4722 9.27964 94.7624 9.76488 94.9075 10.4202C94.9175 10.4652 94.9575 10.5002 95.0075 10.5002H97.8139C97.8739 10.5002 97.924 10.4452 97.914 10.3852C97.6989 8.82942 97.0885 7.67384 96.093 6.91846C95.0675 6.14307 93.8219 5.75788 92.3462 5.75788C91.3057 5.75788 90.3402 5.998 89.4497 6.47824C88.5593 6.95848 87.8389 7.67384 87.2887 8.61931C86.7384 9.56478 86.4632 10.7304 86.4632 12.1111C86.4632 13.4917 86.7284 14.6523 87.2536 15.6028C87.7789 16.5483 88.4892 17.2636 89.3797 17.7539C90.2701 18.2441 91.2606 18.4842 92.3462 18.4842C93.2316 18.4842 94.067 18.3242 94.8574 18.009C95.6478 17.6888 96.3132 17.1986 96.8584 16.5333C97.3787 15.8929 97.7439 15.0975 97.949 14.1421C97.964 14.082 97.914 14.022 97.8489 14.022H95.0475C95.0025 14.022 94.9625 14.052 94.9525 14.097C94.7924 14.6473 94.4722 15.0625 93.997 15.3327ZM105.023 5.75288C106.093 5.75288 107.084 5.993 107.989 6.48324C108.894 6.96848 109.62 7.68885 110.165 8.63432C110.71 9.57979 110.98 10.7354 110.98 12.1011C110.98 13.4667 110.705 14.6223 110.165 15.5678C109.62 16.5133 108.894 17.2336 107.989 17.7289C107.084 18.2241 106.093 18.4742 105.023 18.4742C103.922 18.4742 102.921 18.2241 102.021 17.7289C101.121 17.2336 100.405 16.5133 99.8799 15.5678C99.3547 14.6223 99.0896 13.4667 99.0896 12.1011C99.0896 10.7354 99.3547 9.57979 99.8799 8.63432C100.41 7.68885 101.121 6.97349 102.021 6.48324C102.921 5.998 103.922 5.75288 105.023 5.75288ZM105.023 15.7479C105.923 15.7479 106.638 15.4377 107.164 14.8074C107.689 14.1821 107.954 13.2866 107.954 12.1211C107.954 10.9405 107.689 10.04 107.164 9.40971C106.633 8.78439 105.923 8.46924 105.023 8.46924C104.137 8.46924 103.432 8.77939 102.906 9.40971C102.381 10.04 102.116 10.9405 102.116 12.1211C102.116 13.2816 102.376 14.1771 102.896 14.8074C103.412 15.4327 104.122 15.7479 105.023 15.7479ZM115.908 6.61831C115.718 6.7984 115.538 7.0085 115.368 7.24362C115.313 7.32366 115.188 7.28364 115.188 7.18359V6.07804C115.188 6.02301 115.143 5.97799 115.088 5.97799H112.566C112.511 5.97799 112.466 6.02301 112.466 6.07804V18.1591C112.466 18.2141 112.511 18.2591 112.566 18.2591H115.298C115.353 18.2591 115.398 18.2141 115.398 18.1591V11.2156C115.398 10.6103 115.493 10.1251 115.678 9.75988C115.863 9.3947 116.113 9.12957 116.423 8.96949C116.733 8.8044 117.089 8.72436 117.494 8.72436H119.745C119.8 8.72436 119.845 8.67934 119.845 8.62431V6.07804C119.845 6.02301 119.8 5.97799 119.745 5.97799H117.889C117.019 5.98299 116.358 6.1931 115.908 6.61831ZM129.065 6.48324C129.925 6.96848 130.605 7.68884 131.101 8.64432C131.596 9.5998 131.846 10.7554 131.846 12.1161V12.5013C131.846 12.5913 131.836 12.6863 131.816 12.7814C131.806 12.8314 131.766 12.8664 131.716 12.8664H123.432C123.372 12.8664 123.327 12.9165 123.332 12.9765C123.422 13.7719 123.652 14.4122 124.017 14.8874C124.507 15.5228 125.223 15.8429 126.168 15.8429C126.788 15.8429 127.314 15.7329 127.749 15.5078C128.164 15.2976 128.449 14.9425 128.609 14.4522C128.624 14.4122 128.659 14.3822 128.704 14.3822H131.531C131.596 14.3822 131.646 14.4422 131.631 14.5023C131.326 15.8379 130.675 16.8284 129.68 17.4737C128.654 18.1391 127.464 18.4742 126.098 18.4742C125.028 18.4742 124.062 18.2341 123.192 17.7439C122.321 17.2536 121.631 16.5383 121.121 15.5928C120.61 14.6473 120.355 13.4917 120.355 12.1261C120.355 10.7904 120.62 9.64983 121.156 8.70435C121.686 7.75888 122.396 7.02851 123.282 6.51826C124.167 6.008 125.128 5.75288 126.168 5.75288C127.239 5.75288 128.204 5.998 129.065 6.48324ZM128.154 9.14457C127.729 8.56929 127.059 8.28414 126.143 8.28414C125.228 8.28414 124.522 8.61431 124.032 9.27464C123.777 9.60981 123.592 10.025 123.467 10.5103C123.447 10.5753 123.497 10.6353 123.562 10.6353H128.609C128.674 10.6353 128.719 10.5753 128.709 10.5153C128.614 9.96999 128.429 9.50976 128.154 9.14457Z" fill="#121212"/>
</g>
<defs>
<clipPath id="clip0_406_14164">
<rect width="132" height="20" fill="white"/>
</clipPath>
</defs>
</svg>
