<?xml version="1.0" standalone="no"?>
<!DOCTYPE svg PUBLIC "-//W3C//DTD SVG 20010904//EN"
 "http://www.w3.org/TR/2001/REC-SVG-20010904/DTD/svg10.dtd">
<svg version="1.0" xmlns="http://www.w3.org/2000/svg"
 width="1200.000000pt" height="1200.000000pt" viewBox="0 0 1200.000000 1200.000000"
 preserveAspectRatio="xMidYMid meet">

<g transform="translate(0.000000,1200.000000) scale(0.100000,-0.100000)"
fill="#000000" stroke="none">
<path d="M1592 9128 c-56 -78 -201 -298 -251 -380 l-23 -38 140 0 140 0 62 98
c35 53 89 135 122 181 33 45 57 85 54 88 -2 3 -11 -4 -18 -16 -8 -13 -23 -21
-41 -21 l-29 0 32 40 c23 29 27 40 16 40 -8 0 -20 -9 -26 -20 -6 -11 -18 -20
-27 -20 -13 0 -14 3 -5 12 19 19 14 30 -10 28 -13 -1 -38 -2 -56 -1 l-33 1 31
45 31 45 -25 0 c-19 0 -37 -17 -84 -82z"/>
<path d="M10246 9202 c-3 -5 8 -28 25 -51 19 -26 25 -39 15 -35 -9 3 -16 14
-17 23 0 11 -3 8 -10 -7 -7 -19 -4 -30 17 -58 21 -27 23 -34 10 -34 -9 0 -16
8 -16 20 0 11 -7 20 -15 20 -8 0 -19 9 -25 20 -6 11 -18 20 -26 20 -11 0 -7
-11 16 -40 l32 -40 -29 0 c-18 0 -33 8 -41 21 -7 12 -16 18 -19 15 -3 -3 0
-12 7 -21 11 -13 8 -15 -18 -15 -21 0 -35 7 -42 21 -7 11 -14 18 -17 16 -3 -3
14 -30 36 -60 23 -29 41 -57 41 -60 0 -16 -51 -5 -62 13 -7 11 -17 20 -22 20
-5 0 -1 -9 9 -20 18 -20 17 -20 -20 -20 -36 0 -37 -1 -22 -18 10 -10 17 -22
17 -25 0 -4 -30 -7 -67 -7 -61 0 -70 3 -91 28 l-24 27 16 -27 16 -28 -40 0
-41 0 26 -37 c21 -32 23 -39 9 -41 -9 -2 -26 6 -38 17 -35 33 -87 26 -54 -7 9
-9 -6 -12 -71 -12 l-83 0 16 -25 16 -25 -36 0 c-27 0 -41 7 -56 25 -11 14 -26
25 -34 25 -18 0 -18 -9 3 -32 15 -17 15 -18 -2 -18 -9 0 -26 11 -37 25 -21 26
-63 34 -71 13 -2 -7 6 -28 20 -45 l24 -33 -40 0 c-23 0 -41 -4 -41 -10 0 -7
210 -10 610 -10 423 0 610 3 610 11 0 5 -4 8 -8 5 -17 -11 -52 38 -52 74 0 11
-7 20 -15 20 -8 0 -15 9 -15 20 0 11 -4 20 -10 20 -5 0 -10 9 -10 19 0 11 -6
21 -12 24 -17 5 8 37 28 37 8 0 14 3 14 8 0 4 -18 6 -39 4 -36 -4 -39 -2 -34
17 3 13 1 21 -6 21 -7 0 -9 5 -6 10 3 6 15 10 26 10 16 0 17 3 8 18 -8 13 -21
16 -55 13 -44 -3 -54 5 -32 27 9 9 8 12 -6 12 -22 0 -11 18 18 30 16 7 11 9
-26 9 -39 1 -46 4 -41 17 3 9 15 20 27 24 19 8 18 9 -9 10 -27 1 -28 2 -13 14
10 7 15 16 11 19 -9 10 -101 8 -107 -1z m73 -116 c10 -12 8 -13 -8 -9 -12 3
-18 9 -15 14 7 12 10 11 23 -5z"/>
<path d="M1857 8858 c-35 -51 -72 -105 -82 -120 l-17 -28 431 0 c281 0 431 3
431 10 0 6 -20 10 -46 10 l-45 0 25 33 c34 44 33 57 -3 57 -20 0 -36 -9 -49
-25 -11 -14 -28 -25 -37 -25 -17 0 -17 1 -2 18 21 23 21 32 3 32 -8 0 -23 -11
-34 -25 -15 -18 -29 -25 -56 -25 l-36 0 16 25 16 25 -83 0 c-65 0 -80 3 -71
12 33 33 -19 40 -54 7 -12 -11 -29 -19 -38 -17 -14 2 -12 9 9 41 l26 37 -41 0
-40 0 16 28 16 27 -24 -27 c-21 -25 -30 -28 -91 -28 -37 0 -67 3 -67 7 0 3 7
15 17 25 15 17 15 18 -5 18 -15 0 -39 -25 -85 -92z"/>
<path d="M10513 8893 c10 -9 57 -10 57 -1 0 4 -14 8 -32 8 -17 0 -28 -3 -25
-7z"/>
<path d="M10580 8863 c0 -7 -7 -13 -15 -13 -8 0 -15 -3 -15 -7 0 -5 11 -8 25
-8 28 0 29 3 15 25 -6 10 -10 11 -10 3z"/>
<path d="M10570 8816 c0 -2 11 -6 25 -8 14 -3 25 -1 25 3 0 5 -11 9 -25 9 -14
0 -25 -2 -25 -4z"/>
<path d="M10601 8766 c12 -10 60 -16 54 -6 -3 5 -18 10 -32 10 -15 0 -24 -2
-22 -4z"/>
<path d="M10660 8731 c0 -6 4 -13 10 -16 6 -3 7 1 4 9 -7 18 -14 21 -14 7z"/>
<path d="M4546 7737 c3 -10 9 -15 12 -12 3 3 0 11 -7 18 -10 9 -11 8 -5 -6z"/>
<path d="M4196 7701 c-4 -5 3 -7 14 -4 23 6 26 13 6 13 -8 0 -17 -4 -20 -9z"/>
<path d="M4285 7680 c10 -11 20 -20 23 -20 3 0 -3 9 -13 20 -10 11 -20 20 -23
20 -3 0 3 -9 13 -20z"/>
<path d="M3928 7683 c18 -2 45 -2 60 0 15 2 0 4 -33 4 -33 0 -45 -2 -27 -4z"/>
<path d="M4478 7683 c18 -2 45 -2 60 0 15 2 0 4 -33 4 -33 0 -45 -2 -27 -4z"/>
<path d="M3738 7625 c-21 -14 -43 -24 -50 -23 -7 2 -12 -4 -13 -12 0 -12 -19
-15 -110 -14 -63 0 -79 -1 -37 -3 53 -3 72 -7 72 -18 0 -7 -12 -16 -27 -18
-23 -3 -21 -4 10 -6 41 -1 46 -7 20 -27 -16 -12 -16 -12 6 -7 19 5 22 2 19
-13 -2 -11 -11 -18 -20 -16 -12 2 -15 -3 -11 -18 3 -11 13 -20 22 -20 12 0 13
2 3 9 -10 6 -10 11 3 21 10 8 14 22 11 36 -3 12 0 26 7 32 10 9 12 -1 9 -52
-3 -52 0 -70 19 -106 40 -72 46 -80 51 -74 3 3 -9 28 -28 56 -28 42 -34 59
-34 105 0 67 16 99 76 152 54 47 54 52 2 16z m-93 -75 c0 -22 -29 -18 -33 3
-3 14 1 18 15 15 10 -2 18 -10 18 -18z m28 5 c-3 -9 -8 -14 -10 -11 -3 3 -2 9
2 15 9 16 15 13 8 -4z"/>
<path d="M4317 7643 c-4 -3 -7 -18 -7 -31 0 -32 13 -20 15 13 1 28 1 28 -8 18z"/>
<path d="M4568 7643 c7 -3 16 -2 19 1 4 3 -2 6 -13 5 -11 0 -14 -3 -6 -6z"/>
<path d="M3426 7631 c-4 -5 4 -7 16 -3 18 4 20 2 15 -18 -4 -16 -3 -20 5 -12
6 6 8 18 5 26 -7 17 -32 21 -41 7z"/>
<path d="M3495 7629 c-4 -6 -5 -12 -2 -15 2 -3 7 2 10 11 7 17 1 20 -8 4z"/>
<path d="M3593 7633 c13 -3 17 -11 13 -25 -3 -15 -2 -18 6 -10 15 15 2 42 -19
41 -17 -1 -17 -2 0 -6z"/>
<path d="M3647 7633 c-3 -5 5 -8 18 -8 13 0 21 3 18 8 -2 4 -10 7 -18 7 -8 0
-16 -3 -18 -7z"/>
<path d="M4271 7624 c0 -11 3 -14 6 -6 3 7 2 16 -1 19 -3 4 -6 -2 -5 -13z"/>
<path d="M4210 7621 c0 -6 4 -13 10 -16 6 -3 7 1 4 9 -7 18 -14 21 -14 7z"/>
<path d="M3520 7604 c-17 -9 -20 -14 -9 -14 9 0 22 7 29 15 15 18 13 18 -20
-1z"/>
<path d="M3763 7599 c-37 -23 -73 -77 -72 -105 0 -11 4 -6 10 12 9 33 39 69
79 96 36 24 21 22 -17 -3z"/>
<path d="M4138 7613 c-2 -5 -1 -26 3 -48 l6 -40 2 48 c1 44 -3 57 -11 40z"/>
<path d="M4182 7595 c0 -16 2 -22 5 -12 2 9 2 23 0 30 -3 6 -5 -1 -5 -18z"/>
<path d="M4751 7594 c15 -16 32 -38 38 -49 11 -18 12 -18 7 -1 -6 16 -4 17 9
6 13 -11 16 -11 13 1 -2 8 -11 17 -21 21 -10 4 -15 12 -12 18 4 6 3 9 -2 8 -4
-1 -19 4 -33 11 l-25 14 26 -29z"/>
<path d="M3341 7594 c0 -11 3 -14 6 -6 3 7 2 16 -1 19 -3 4 -6 -2 -5 -13z"/>
<path d="M4927 7599 c7 -7 15 -10 18 -7 3 3 -2 9 -12 12 -14 6 -15 5 -6 -5z"/>
<path d="M3277 7593 c-3 -5 5 -8 18 -8 13 0 21 3 18 8 -2 4 -10 7 -18 7 -8 0
-16 -3 -18 -7z"/>
<path d="M4725 7570 c10 -11 20 -20 23 -20 3 0 -3 9 -13 20 -10 11 -20 20 -23
20 -3 0 3 -9 13 -20z"/>
<path d="M4908 7573 c18 -2 45 -2 60 0 15 2 0 4 -33 4 -33 0 -45 -2 -27 -4z"/>
<path d="M5140 7571 c0 -6 4 -13 10 -16 6 -3 7 1 4 9 -7 18 -14 21 -14 7z"/>
<path d="M3408 7563 c7 -3 16 -2 19 1 4 3 -2 6 -13 5 -11 0 -14 -3 -6 -6z"/>
<path d="M3205 7549 c-4 -6 -5 -12 -2 -15 2 -3 7 2 10 11 7 17 1 20 -8 4z"/>
<path d="M3280 7525 c-29 -17 -44 -19 -35 -5 3 6 -1 7 -10 3 -12 -4 -13 -8 -4
-13 8 -6 5 -11 -10 -19 -16 -9 -21 -9 -21 0 0 16 -11 5 -14 -13 -1 -7 -11 -27
-22 -43 -31 -45 -38 -59 -27 -52 6 4 8 -13 6 -46 -4 -41 1 -62 21 -101 22 -43
23 -52 11 -69 -13 -19 -14 -18 -34 14 -12 19 -21 29 -21 23 0 -5 7 -19 15 -30
21 -27 19 -43 -5 -37 -23 6 -39 -22 -22 -39 8 -8 9 -5 5 11 -5 18 -1 21 21 19
33 -3 53 -23 31 -32 -8 -3 -15 -1 -15 5 0 6 -5 7 -11 3 -8 -5 -8 -9 1 -14 9
-5 9 -9 1 -14 -17 -11 -13 -36 7 -36 15 0 15 2 2 10 -24 16 26 54 60 45 14 -3
35 -7 48 -8 43 -4 60 -77 22 -97 -17 -9 -24 -6 -46 20 -15 18 -35 30 -47 29
-21 -1 -21 -2 -2 -6 30 -8 53 -32 66 -70 8 -24 21 -39 43 -48 17 -7 42 -25 56
-40 27 -29 79 -60 87 -52 2 3 -5 8 -17 12 -29 9 -90 64 -90 81 0 20 4 18 61
-21 68 -47 103 -47 130 0 l21 35 25 -20 c62 -49 165 -3 167 73 1 22 7 39 15
42 8 3 14 4 15 3 1 -2 10 -21 21 -43 38 -75 143 -80 191 -8 l21 32 28 -29 c37
-38 82 -47 128 -25 34 16 67 64 67 99 0 9 7 16 15 16 8 0 15 -7 15 -16 0 -35
33 -83 67 -99 46 -22 91 -13 128 25 l28 29 21 -32 c29 -43 83 -61 134 -44 29
9 42 21 57 54 11 23 24 41 30 39 5 -1 13 -21 18 -44 16 -81 109 -120 171 -71
25 19 26 20 33 2 22 -62 69 -68 142 -18 57 39 61 41 61 21 0 -17 -61 -72 -90
-81 -12 -4 -19 -9 -17 -12 8 -8 60 23 87 52 14 15 39 33 56 40 22 9 35 24 43
48 13 38 36 62 66 70 19 4 19 5 -2 6 -12 1 -32 -11 -47 -29 -22 -26 -29 -29
-46 -20 -35 19 -19 94 21 97 13 1 35 5 49 8 34 9 84 -29 60 -45 -13 -8 -13
-10 3 -10 21 0 21 10 2 58 -13 29 -14 41 -4 59 l12 22 18 -22 c17 -21 19 -21
35 -5 13 13 15 21 7 29 -8 8 -11 6 -10 -7 1 -11 -4 -19 -13 -19 -8 0 -14 8
-14 17 1 10 -2 15 -7 12 -5 -3 -9 1 -9 8 0 7 -8 0 -19 -15 -16 -25 -19 -26
-31 -12 -11 13 -11 23 -2 48 l12 32 -20 -25 c-19 -24 -19 -26 0 -57 17 -29 17
-43 -1 -43 -4 0 -17 17 -29 37 -21 36 -21 38 -4 68 9 16 14 27 9 23 -4 -4 -30
6 -59 22 -76 43 -169 70 -262 78 -67 6 -85 5 -89 -6 -3 -8 -11 -12 -18 -9 -8
3 -14 -5 -15 -21 -3 -37 -20 -51 -36 -30 -7 10 -16 15 -19 11 -19 -19 -3 23
18 49 14 16 25 35 25 41 0 7 -9 -2 -19 -19 -11 -18 -25 -35 -31 -39 -7 -4 -9
-18 -5 -36 8 -36 -7 -38 -30 -3 -16 25 -16 27 5 49 l22 23 -34 7 c-18 3 -72
20 -120 36 -48 16 -125 35 -170 41 -46 6 -86 16 -90 22 -12 17 -9 -29 3 -80
11 -43 10 -46 -17 -75 -15 -16 -31 -29 -36 -29 -15 0 -8 27 12 45 11 10 20 25
19 34 0 10 -4 7 -10 -8 -8 -20 -12 -21 -25 -11 -8 7 -13 19 -10 26 3 8 0 11
-10 7 -13 -5 -13 -8 1 -23 17 -18 20 -40 6 -40 -5 0 -4 -13 2 -30 8 -22 16
-28 29 -24 22 7 23 -4 2 -55 -15 -37 -17 -38 -61 -37 -43 1 -47 3 -59 36 -18
51 -17 62 5 55 22 -7 35 28 21 56 -7 12 -6 22 5 33 8 8 15 18 15 23 -1 4 -10
-3 -21 -17 -20 -24 -21 -24 -35 -5 -8 10 -14 15 -14 10 0 -5 12 -21 27 -37 36
-38 22 -46 -22 -12 -28 21 -35 32 -31 48 4 12 9 40 13 64 l6 43 -34 -5 c-19
-3 -56 -8 -84 -11 -27 -4 -96 -22 -153 -41 -116 -38 -147 -42 -161 -16 -6 9
-11 12 -11 7 0 -6 14 -27 31 -48 30 -36 30 -39 15 -62 -21 -32 -29 -31 -43 5
-8 21 -18 30 -33 30 -17 0 -20 4 -15 23 7 22 7 22 -8 2 -13 -16 -18 -18 -28
-7 -18 17 -132 15 -204 -3 -33 -9 -91 -31 -130 -51 -65 -32 -71 -33 -82 -17
-23 31 -14 -3 10 -39 l24 -34 -24 -37 c-22 -36 -43 -48 -43 -27 0 6 7 22 16
35 15 23 15 27 -5 58 -63 103 -18 231 106 296 21 11 34 20 28 20 -5 0 -21 -6
-35 -14z m410 -229 c0 -8 -4 -17 -8 -20 -13 -8 -35 11 -28 23 10 16 36 14 36
-3z m49 -77 c11 -18 22 -26 25 -20 15 24 23 9 16 -29 -9 -49 -6 -46 -52 -53
-34 -5 -38 -3 -57 29 -26 43 -26 47 -1 39 17 -5 20 -2 20 23 0 51 22 56 49 11z
m1039 -8 c3 -26 7 -31 23 -26 24 8 24 4 -2 -39 -19 -32 -23 -34 -57 -29 -46 7
-43 4 -52 53 -7 38 1 53 16 29 3 -6 14 2 25 21 24 38 43 35 47 -9z m-630 -46
c34 -14 38 -19 38 -50 0 -36 -12 -45 -79 -61 -21 -5 -26 -3 -22 8 4 10 -7 20
-37 32 -41 16 -42 17 -23 32 11 8 30 17 43 21 14 3 21 11 18 19 -7 18 14 18
62 -1z m236 1 c-4 -9 7 -18 31 -26 42 -14 41 -29 -3 -49 -21 -10 -31 -20 -27
-29 4 -11 -1 -13 -22 -8 -67 16 -79 25 -79 61 0 30 5 36 36 49 46 19 71 20 64
2z m-524 -31 c0 -9 9 -15 23 -15 12 0 29 -5 37 -10 13 -8 12 -11 -5 -24 -11
-9 -26 -16 -34 -16 -7 0 -11 -6 -7 -15 4 -11 -2 -15 -27 -15 -41 0 -53 9 -59
43 -5 24 0 32 26 48 37 23 46 24 46 4z m796 -4 c26 -16 31 -24 26 -48 -6 -34
-18 -43 -59 -43 -25 0 -31 4 -27 15 4 9 0 15 -8 15 -8 0 -23 8 -32 19 -15 17
-15 19 -1 25 9 3 25 6 36 6 10 0 19 7 19 15 0 20 9 19 46 -4z m654 -21 c0 -5
-4 -10 -10 -10 -5 0 -10 5 -10 10 0 6 5 10 10 10 6 0 10 -4 10 -10z m-1624
-13 c0 -1 4 -17 7 -35 6 -30 4 -34 -29 -49 -25 -13 -37 -14 -42 -6 -4 6 -20
15 -35 18 -39 10 -42 22 -9 42 16 10 27 24 24 32 -4 11 4 13 39 7 24 -4 44 -8
45 -9z m1181 1 c-2 -7 9 -21 25 -31 33 -20 30 -32 -9 -42 -15 -3 -31 -12 -35
-18 -11 -18 -82 19 -74 39 3 9 6 24 6 34 0 18 18 26 68 29 15 0 22 -4 19 -11z
m-859 -51 c2 -19 -1 -27 -13 -27 -19 0 -30 24 -21 46 9 23 31 11 34 -19z m487
2 c0 -15 -7 -25 -17 -27 -13 -3 -18 3 -18 21 0 13 3 27 7 31 13 12 28 -1 28
-25z m-1100 -9 c3 -5 22 -10 41 -10 40 0 44 -13 9 -36 -20 -13 -23 -19 -14
-30 9 -12 2 -14 -41 -14 -39 0 -56 5 -66 18 -21 27 -17 41 19 62 37 23 43 24
52 10z m1733 -10 c61 -37 36 -80 -46 -80 -45 0 -52 2 -43 14 9 11 6 17 -14 30
-35 23 -31 36 9 36 19 0 38 5 41 10 9 14 15 13 53 -10z m-1583 -61 c8 -23 -7
-45 -24 -35 -6 4 -11 18 -11 32 0 30 26 32 35 3z m1418 7 c3 -8 -1 -22 -8 -33
-18 -23 -40 -5 -30 26 7 24 30 28 38 7z"/>
<path d="M3448 7533 c12 -2 32 -2 45 0 12 2 2 4 -23 4 -25 0 -35 -2 -22 -4z"/>
<path d="M4228 7533 c7 -3 16 -2 19 1 4 3 -2 6 -13 5 -11 0 -14 -3 -6 -6z"/>
<path d="M4858 7533 c7 -3 16 -2 19 1 4 3 -2 6 -13 5 -11 0 -14 -3 -6 -6z"/>
<path d="M4998 7533 c7 -3 16 -2 19 1 4 3 -2 6 -13 5 -11 0 -14 -3 -6 -6z"/>
<path d="M4830 7515 c7 -8 17 -15 22 -15 5 0 3 7 -6 15 -8 8 -18 15 -22 15 -3
0 -1 -7 6 -15z"/>
<path d="M3168 7513 c7 -3 16 -2 19 1 4 3 -2 6 -13 5 -11 0 -14 -3 -6 -6z"/>
<path d="M3320 7504 c-45 -19 -97 -60 -111 -85 -6 -11 7 -3 29 19 22 22 64 49
93 60 30 12 47 21 39 21 -8 0 -31 -7 -50 -15z"/>
<path d="M5233 7480 c59 -52 69 -70 78 -145 l7 -60 -1 68 c-1 62 -5 73 -33
105 -18 21 -47 45 -65 56 -29 16 -27 12 14 -24z"/>
<path d="M4283 7465 c0 -22 2 -30 4 -17 2 12 2 30 0 40 -3 9 -5 -1 -4 -23z"/>
<path d="M5306 7483 c-6 -14 -5 -15 5 -6 7 7 10 15 7 18 -3 3 -9 -2 -12 -12z"/>
<path d="M4173 7445 c0 -22 2 -30 4 -17 2 12 2 30 0 40 -3 9 -5 -1 -4 -23z"/>
<path d="M4771 7464 c0 -11 3 -14 6 -6 3 7 2 16 -1 19 -3 4 -6 -2 -5 -13z"/>
<path d="M4812 7460 c0 -14 2 -19 5 -12 2 6 2 18 0 25 -3 6 -5 1 -5 -13z"/>
<path d="M3105 7460 c-3 -6 1 -7 9 -4 18 7 21 14 7 14 -6 0 -13 -4 -16 -10z"/>
<path d="M4850 7450 c-6 -11 -7 -20 -2 -20 6 0 12 9 15 20 3 11 3 20 1 20 -2
0 -8 -9 -14 -20z"/>
<path d="M5200 7467 c0 -2 15 -16 33 -33 l32 -29 -29 33 c-28 30 -36 37 -36
29z"/>
<path d="M3136 7433 c-6 -14 -5 -15 5 -6 7 7 10 15 7 18 -3 3 -9 -2 -12 -12z"/>
<path d="M3691 7424 c0 -11 3 -14 6 -6 3 7 2 16 -1 19 -3 4 -6 -2 -5 -13z"/>
<path d="M4199 7423 c-13 -17 -13 -17 6 -3 11 8 22 16 24 17 2 2 0 3 -6 3 -6
0 -17 -8 -24 -17z"/>
<path d="M4240 7436 c0 -2 7 -7 16 -10 8 -3 12 -2 9 4 -6 10 -25 14 -25 6z"/>
<path d="M4801 7414 c0 -11 3 -14 6 -6 3 7 2 16 -1 19 -3 4 -6 -2 -5 -13z"/>
<path d="M3627 7406 c-4 -9 -12 -14 -19 -12 -7 1 -10 1 -5 -1 4 -3 7 -11 7
-19 0 -8 6 -11 17 -7 11 4 13 8 5 11 -10 3 -10 7 -1 18 7 8 10 17 7 20 -3 3
-8 -2 -11 -10z"/>
<path d="M4292 7400 c0 -14 2 -19 5 -12 2 6 2 18 0 25 -3 6 -5 1 -5 -13z"/>
<path d="M4866 7403 c-6 -14 -5 -15 5 -6 7 7 10 15 7 18 -3 3 -9 -2 -12 -12z"/>
<path d="M3064 7385 c-11 -27 25 -50 40 -26 4 5 -4 7 -16 3 -18 -4 -20 -2 -16
16 7 25 0 30 -8 7z"/>
<path d="M4161 7384 c0 -11 3 -14 6 -6 3 7 2 16 -1 19 -3 4 -6 -2 -5 -13z"/>
<path d="M5355 7389 c-4 -6 -5 -12 -2 -15 2 -3 7 2 10 11 7 17 1 20 -8 4z"/>
<path d="M3186 7375 c-3 -9 -5 -33 -5 -53 2 -33 2 -32 9 13 8 53 6 66 -4 40z"/>
<path d="M3116 7355 c-3 -9 -6 -26 -5 -38 1 -14 4 -9 9 13 9 37 7 52 -4 25z"/>
<path d="M5380 7360 c-9 -6 -10 -10 -3 -10 6 0 15 5 18 10 8 12 4 12 -15 0z"/>
<path d="M4219 7323 c-12 -16 -12 -17 2 -6 9 7 20 9 24 5 5 -4 5 -1 1 6 -9 16
-11 15 -27 -5z"/>
<path d="M3045 7319 c-4 -6 -5 -12 -2 -15 2 -3 7 2 10 11 7 17 1 20 -8 4z"/>
<path d="M3076 7295 c-11 -8 -15 -15 -9 -15 6 0 16 7 23 15 16 19 11 19 -14 0z"/>
<path d="M5352 7280 c0 -14 2 -19 5 -12 2 6 2 18 0 25 -3 6 -5 1 -5 -13z"/>
<path d="M3068 7253 c26 -5 29 -29 5 -37 -14 -4 -14 -4 2 -3 31 3 26 42 -5 44
-22 1 -22 1 -2 -4z"/>
<path d="M3112 7240 c0 -14 2 -19 5 -12 2 6 2 18 0 25 -3 6 -5 1 -5 -13z"/>
<path d="M5406 7247 c3 -10 9 -15 12 -12 3 3 0 11 -7 18 -10 9 -11 8 -5 -6z"/>
<path d="M5388 7213 c7 -3 16 -2 19 1 4 3 -2 6 -13 5 -11 0 -14 -3 -6 -6z"/>
<path d="M3107 7169 c4 -13 8 -18 11 -10 2 7 -1 18 -6 23 -8 8 -9 4 -5 -13z"/>
<path d="M3077 7149 c7 -7 15 -10 18 -7 3 3 -2 9 -12 12 -14 6 -15 5 -6 -5z"/>
<path d="M5330 7136 c0 -2 7 -7 16 -10 8 -3 12 -2 9 4 -6 10 -25 14 -25 6z"/>
<path d="M4202 6942 c-46 -36 -119 -41 -167 -13 l-36 21 -22 -20 c-46 -44
-141 -46 -187 -5 -16 14 -20 13 -52 -19 -39 -39 -92 -54 -147 -40 -32 9 -39 7
-63 -18 -14 -16 -37 -28 -51 -28 -20 0 -23 -4 -19 -25 3 -18 13 -28 36 -34 31
-8 33 -12 21 -43 -5 -12 -2 -18 8 -18 27 0 39 -25 26 -54 -10 -22 -10 -29 2
-40 15 -15 118 -42 189 -50 25 -3 7 3 -40 14 -129 29 -145 35 -148 53 -7 34
231 80 506 98 208 13 444 2 639 -31 163 -28 225 -47 221 -67 -3 -18 -19 -24
-148 -53 -47 -11 -65 -17 -40 -14 71 8 174 35 189 50 12 11 12 18 2 40 -13 29
-1 54 26 54 10 0 13 6 8 18 -12 31 -10 35 24 44 26 7 32 13 28 28 -3 11 0 21
7 24 6 2 -2 5 -17 5 -18 1 -39 12 -55 29 -24 25 -31 27 -63 18 -55 -14 -108 1
-147 40 -32 32 -36 33 -52 19 -46 -41 -141 -39 -187 5 l-22 20 -36 -21 c-48
-28 -120 -23 -167 13 l-33 25 -33 -25z m349 -57 c233 -22 444 -68 444 -95 0
-18 0 -18 -145 13 -202 44 -295 52 -620 52 -329 0 -461 -12 -652 -60 -87 -21
-127 -20 -102 4 10 11 135 43 236 61 218 39 579 50 839 25z m24 -50 c141 -15
337 -50 365 -65 18 -10 9 -14 -54 -25 l-39 -6 31 -22 c34 -24 35 -26 24 -43
-5 -9 -29 -7 -92 7 -184 41 -316 53 -575 53 -259 0 -391 -12 -575 -53 -63 -14
-87 -16 -92 -7 -11 17 -10 19 23 43 l31 21 -46 7 c-96 15 -62 31 134 65 63 11
156 24 205 29 151 14 508 12 660 -4z"/>
<path d="M4152 6821 c-8 -5 -12 -17 -10 -27 3 -17 14 -19 89 -22 65 -2 89 1
98 12 9 11 8 17 -4 30 -12 12 -35 16 -88 16 -40 0 -78 -4 -85 -9z"/>
<path d="M4048 6813 c12 -2 22 -11 22 -19 0 -16 -36 -19 -43 -4 -3 6 -4 5 -3
-2 2 -7 14 -13 27 -13 35 0 34 39 -1 42 -22 1 -22 1 -2 -4z"/>
<path d="M4394 6805 c-8 -20 4 -35 26 -35 23 0 32 13 24 34 -8 20 -43 21 -50
1z m44 -12 c2 -8 -5 -13 -17 -13 -12 0 -21 6 -21 16 0 18 31 15 38 -3z"/>
<path d="M3840 6803 c-68 -13 -60 -53 10 -53 64 0 100 14 100 40 0 17 -6 20
-42 19 -24 -1 -54 -4 -68 -6z m100 -17 c0 -8 -17 -16 -46 -20 -69 -9 -84 -8
-84 8 0 14 13 17 108 24 13 1 22 -4 22 -12z"/>
<path d="M4517 6797 c-11 -28 11 -40 83 -45 71 -5 72 -5 68 19 -2 17 -11 26
-33 30 -55 12 -113 10 -118 -4z m137 -18 c18 -16 -3 -21 -63 -14 -44 5 -61 11
-61 22 0 12 10 13 58 8 31 -4 61 -11 66 -16z"/>
<path d="M3669 6763 c-11 -15 -11 -16 1 -5 23 20 43 15 37 -9 -4 -16 -3 -19 5
-11 14 14 3 42 -15 42 -8 0 -21 -8 -28 -17z"/>
<path d="M4753 6764 c-3 -8 -1 -20 5 -26 8 -8 9 -4 5 12 -5 20 -3 22 15 18 12
-4 20 -2 16 3 -9 14 -34 10 -41 -7z"/>
<path d="M4785 6740 c-3 -5 -1 -10 4 -10 6 0 11 5 11 10 0 6 -2 10 -4 10 -3 0
-8 -4 -11 -10z"/>
<path d="M2611 6856 c-6 -7 -9 -21 -5 -30 3 -9 1 -16 -5 -16 -19 0 -12 -22 9
-27 25 -7 30 -70 5 -70 -8 0 -14 7 -13 16 4 53 3 53 -73 46 -73 -7 -144 -41
-154 -74 -7 -26 2 -56 16 -53 8 2 11 0 6 -4 -4 -4 0 -15 9 -25 13 -14 22 -16
42 -8 23 8 25 7 11 -4 -16 -12 -16 -15 -1 -42 27 -51 25 -55 -29 -55 l-49 0 0
-65 c0 -58 2 -65 20 -65 11 0 20 -6 20 -14 0 -8 7 -16 15 -20 21 -8 19 -29 -6
-44 -16 -11 -18 -16 -9 -28 10 -11 49 -14 206 -14 199 0 221 5 190 39 -9 10
-16 22 -16 27 1 17 38 54 54 54 13 0 16 12 16 65 l0 65 -56 0 c-46 0 -54 2
-45 13 15 19 5 26 -32 23 -18 -2 -22 -1 -9 1 26 5 30 30 5 35 -15 3 -14 5 5
10 12 3 20 2 16 -3 -3 -5 3 -9 13 -10 11 0 13 -3 5 -6 -13 -5 -7 -23 7 -23 18
0 20 44 3 57 -15 11 -14 12 10 4 20 -8 29 -6 42 8 9 10 13 21 9 25 -5 4 -3 6
4 4 12 -3 13 0 13 33 0 24 -66 89 -89 88 -12 0 -10 -3 4 -9 11 -5 15 -9 9 -9
-6 -1 -17 -12 -24 -26 -7 -14 -18 -25 -23 -25 -6 0 -2 10 9 23 18 22 18 22 -7
-1 -18 -15 -25 -30 -22 -43 3 -10 0 -19 -6 -19 -6 0 -8 8 -4 18 4 10 -5 5 -20
-12 -26 -28 -39 -52 -15 -28 15 15 48 16 48 2 0 -11 -2 -11 -82 -15 -50 -3
-57 -1 -63 18 -7 21 -7 22 -13 2 -4 -11 -15 -20 -24 -20 -27 0 -34 15 -10 22
30 7 25 34 -9 50 -15 7 -33 21 -40 30 -10 11 -10 14 -1 9 6 -4 12 -5 12 -1 0
3 -10 10 -22 15 -22 9 -22 9 -2 9 27 1 67 -30 94 -74 12 -19 26 -35 31 -35 6
0 7 5 4 10 -3 6 -1 10 4 10 6 0 11 -7 11 -15 0 -8 5 -15 11 -15 6 0 9 6 6 14
-4 10 1 13 18 11 16 -1 30 6 40 21 8 13 27 34 42 48 l27 25 -28 11 c-15 5 -41
10 -57 10 -18 0 -28 4 -24 10 4 6 1 17 -5 25 -9 11 -9 15 -1 15 6 0 11 5 11
11 0 6 -7 9 -14 6 -10 -4 -13 -1 -9 9 7 18 -1 18 -16 0z m36 -118 c-3 -8 -6
-5 -6 6 -1 11 2 17 5 13 3 -3 4 -12 1 -19z m-17 -48 c0 -5 -4 -10 -10 -10 -5
0 -10 5 -10 10 0 6 5 10 10 10 6 0 10 -4 10 -10z m-120 -10 c0 -5 -2 -10 -4
-10 -3 0 -8 5 -11 10 -3 6 -1 10 4 10 6 0 11 -4 11 -10z m24 -6 c3 -8 2 -12
-4 -9 -6 3 -10 10 -10 16 0 14 7 11 14 -7z m216 6 c0 -5 -4 -10 -10 -10 -5 0
-10 5 -10 10 0 6 5 10 10 10 6 0 10 -4 10 -10z m-243 -26 c-3 -3 -12 -4 -19
-1 -8 3 -5 6 6 6 11 1 17 -2 13 -5z m-77 -14 c0 -5 -5 -10 -11 -10 -5 0 -7 5
-4 10 3 6 8 10 11 10 2 0 4 -4 4 -10z m314 -18 c3 -5 -1 -9 -9 -9 -8 0 -12 4
-9 9 3 4 7 8 9 8 2 0 6 -4 9 -8z m-167 -18 c-3 -3 -12 -4 -19 -1 -8 3 -5 6 6
6 11 1 17 -2 13 -5z m110 -14 c25 0 27 -21 3 -32 -8 -4 -40 -7 -70 -7 -61 0
-84 7 -88 28 -2 9 4 12 16 9 11 -3 26 -1 33 4 8 5 30 6 49 3 19 -3 45 -5 57
-5z m-194 -24 c3 -8 16 -16 29 -19 21 -4 21 -4 2 -6 -12 0 -31 8 -44 19 -17
15 -19 20 -8 20 9 0 18 -6 21 -14z m367 -121 l0 -55 -235 0 -235 0 0 55 0 55
235 0 235 0 0 -55z m-45 -75 c4 -7 -62 -10 -189 -10 -124 0 -196 4 -196 10 0
6 70 10 189 10 116 0 192 -4 196 -10z m-25 -40 c0 -19 -7 -20 -164 -20 -155 0
-164 1 -169 20 -5 19 0 20 164 20 162 0 169 -1 169 -20z m25 -50 c-4 -6 -80
-10 -196 -10 -119 0 -189 4 -189 10 0 6 72 10 196 10 127 0 193 -3 189 -10z"/>
<path d="M2590 6579 c0 -5 -4 -8 -9 -4 -5 3 -12 1 -16 -5 -4 -6 16 -10 54 -10
33 0 62 4 66 9 3 6 -4 8 -15 6 -11 -2 -20 0 -20 6 0 5 -13 9 -30 9 -16 0 -30
-5 -30 -11z"/>
<path d="M5836 6835 c-3 -8 -3 -22 0 -30 4 -8 2 -15 -4 -15 -5 0 -9 -11 -9
-25 0 -33 -1 -33 -48 -38 -22 -2 -47 -7 -55 -10 -16 -6 -67 -17 -87 -19 -7 -1
-13 -5 -13 -10 0 -5 -6 -6 -12 -2 -9 5 -9 2 1 -9 9 -12 10 -17 2 -17 -7 0 -9
-5 -6 -10 4 -6 11 -7 17 -4 6 4 8 3 5 -3 -3 -5 3 -17 14 -26 15 -14 24 -15 42
-7 20 10 20 10 5 -3 -20 -15 -14 -27 13 -27 9 0 19 -6 22 -14 3 -8 16 -16 29
-19 22 -4 22 -4 1 -6 -12 0 -29 6 -38 15 -9 9 -19 13 -23 9 -4 -3 2 -13 12
-21 11 -8 14 -14 7 -14 -7 0 -9 -4 -6 -10 4 -6 -13 -10 -44 -10 l-51 0 0 -65
c0 -58 2 -65 20 -65 11 0 20 -6 20 -14 0 -8 7 -16 15 -20 20 -7 19 -26 -2 -41
-9 -7 -14 -19 -10 -29 6 -14 30 -16 202 -16 171 0 196 2 202 16 4 10 0 20 -10
26 -21 11 -22 37 -2 44 8 4 15 12 15 20 0 8 9 14 20 14 18 0 20 7 20 65 l0 65
-49 0 c-35 0 -51 4 -55 16 -3 8 -2 13 3 10 9 -6 36 51 32 67 -1 5 2 6 6 4 13
-8 46 20 38 32 -4 7 0 8 11 4 13 -5 15 -2 8 18 -4 13 -8 32 -8 41 0 9 -2 15
-5 13 -2 -3 -11 1 -20 8 -14 11 -14 10 -2 -5 12 -17 11 -18 -20 -12 -19 3 -53
10 -76 16 -23 6 -54 8 -67 6 -22 -4 -25 -2 -24 18 1 13 7 24 12 24 5 0 1 9 -8
19 -13 15 -14 20 -4 23 11 4 10 8 -1 21 -17 21 -27 21 -35 2z m24 -100 c0 -13
-6 -22 -15 -22 -9 0 -15 9 -15 22 0 13 6 22 15 22 9 0 15 -9 15 -22z m0 -45
c0 -5 -2 -10 -4 -10 -3 0 -8 5 -11 10 -3 6 -1 10 4 10 6 0 11 -4 11 -10z
m-120 -10 c0 -5 -2 -10 -4 -10 -3 0 -8 5 -11 10 -3 6 -1 10 4 10 6 0 11 -4 11
-10z m240 0 c0 -5 -4 -10 -10 -10 -5 0 -10 5 -10 10 0 6 5 10 10 10 6 0 10 -4
10 -10z m-65 -52 c3 -2 -21 -5 -53 -5 -33 0 -49 3 -37 7 20 7 82 6 90 -2z
m-92 -43 c-3 -9 -8 -14 -10 -11 -3 3 -2 9 2 15 9 16 15 13 8 -4z m71 2 c16
-12 16 -14 2 -14 -9 0 -16 4 -16 8 0 4 -10 10 -22 12 -21 4 -21 4 -2 6 11 0
28 -5 38 -12z m-101 -12 c0 -6 -7 -11 -16 -13 -12 -3 -15 1 -11 13 7 17 25 17
27 0z m144 0 c0 -8 -4 -15 -9 -15 -4 0 -8 7 -8 15 0 8 4 15 8 15 5 0 9 -7 9
-15z m65 -2 c-6 -2 -10 -9 -6 -14 3 -5 0 -9 -5 -9 -6 0 -11 7 -11 15 0 8 8 15
18 14 10 0 12 -3 4 -6z m-129 -20 c-13 -2 -35 -2 -50 0 -16 2 -5 4 22 4 28 0
40 -2 28 -4z m94 -9 c-3 -3 -12 -4 -19 -1 -8 3 -5 6 6 6 11 1 17 -2 13 -5z
m123 -99 l0 -55 -235 0 -235 0 0 55 0 55 235 0 235 0 0 -55z m-132 -82 c-53
-2 -143 -2 -200 0 -57 1 -13 3 97 3 110 0 156 -2 103 -3z m-65 -23 c106 0 127
-2 127 -15 0 -13 -25 -15 -165 -15 -162 0 -165 0 -165 21 0 19 4 21 38 15 20
-3 94 -6 165 -6z m152 -60 c-4 -6 -80 -10 -196 -10 -119 0 -189 4 -189 10 0 6
72 10 196 10 127 0 193 -3 189 -10z"/>
<path d="M5773 6753 c9 -2 23 -2 30 0 6 3 -1 5 -18 5 -16 0 -22 -2 -12 -5z"/>
<path d="M5903 6753 c9 -2 23 -2 30 0 6 3 -1 5 -18 5 -16 0 -22 -2 -12 -5z"/>
<path d="M5999 6750 c-11 -7 -10 -10 3 -15 24 -10 38 -2 23 12 -7 6 -18 8 -26
3z"/>
<path d="M5668 6733 c6 -2 18 -2 25 0 6 3 1 5 -13 5 -14 0 -19 -2 -12 -5z"/>
<path d="M4018 6690 c-151 -12 -317 -37 -385 -59 -50 -17 -54 -19 -26 -20 17
-1 65 -8 105 -16 137 -29 322 -45 523 -45 201 0 386 16 523 45 40 8 88 15 105
16 l32 0 -37 14 c-141 52 -579 86 -840 65z"/>
<path d="M3469 6542 l-316 -2 -6 -128 c-4 -70 -7 -230 -7 -356 l0 -228 -27 5
c-30 7 -163 24 -255 33 l-58 5 0 190 0 189 -180 0 -180 0 0 -218 0 -219 -42
-12 c-108 -32 -209 -107 -207 -154 0 -12 19 -65 42 -117 48 -108 77 -134 157
-145 l50 -7 0 -99 c0 -78 -3 -99 -14 -99 -22 0 -170 -77 -190 -99 -16 -18 -16
-24 -1 -113 16 -88 19 -95 62 -137 31 -30 43 -49 40 -62 -7 -24 5 -24 28 1 29
32 31 102 5 144 l-22 36 44 20 43 19 5 -237 c5 -216 3 -238 -12 -252 -12 -11
-15 -19 -8 -30 16 -25 11 -40 -20 -58 -28 -16 -30 -21 -30 -74 0 -62 -13 -78
-64 -78 l-26 0 0 -135 0 -135 24 0 c13 0 43 7 66 15 23 8 62 15 87 15 24 0 60
-7 80 -15 19 -8 58 -15 85 -15 27 0 65 7 85 15 45 19 121 19 166 0 20 -8 48
-15 62 -15 28 0 27 -6 27 130 0 148 3 137 -42 144 l-40 6 0 64 c0 63 -1 64
-31 75 -29 10 -31 14 -26 46 4 26 2 38 -9 42 -12 4 -14 56 -14 328 l0 323 48
30 c26 17 62 46 80 65 l34 35 -12 93 c-6 51 -16 99 -22 106 -6 8 -37 21 -70
30 l-58 16 0 65 0 65 93 -6 c50 -4 126 -15 167 -25 l75 -17 5 -550 c5 -539 5
-551 27 -609 76 -199 203 -302 494 -400 452 -150 943 -120 1365 84 138 67 237
177 286 317 l23 68 -1 543 -1 542 51 15 c63 18 175 35 239 35 l47 0 0 -64 0
-65 -52 -15 c-29 -9 -59 -20 -66 -24 -16 -11 -34 -124 -30 -183 3 -41 7 -47
73 -96 l70 -53 5 -321 c4 -255 2 -323 -8 -326 -8 -4 -10 -16 -6 -39 6 -30 3
-36 -25 -51 -29 -17 -31 -21 -31 -79 0 -66 -7 -73 -67 -74 -23 0 -23 -2 -23
-135 l0 -135 29 0 c16 0 45 7 64 15 46 19 118 19 164 0 45 -19 119 -19 173 0
54 19 118 19 163 0 20 -8 50 -15 67 -15 l31 0 -3 132 -3 132 -42 9 -43 8 0 65
c0 44 -4 64 -12 65 -7 0 -111 0 -230 -1 l-217 -1 12 30 11 31 178 0 178 0 10
-25 c5 -14 11 -25 12 -25 9 0 3 90 -6 93 -8 3 -10 78 -8 245 l3 241 43 -21 44
-21 -21 -29 c-15 -20 -22 -43 -21 -72 1 -63 54 -133 54 -72 0 16 14 36 40 58
38 31 41 38 59 131 l18 97 -25 25 c-24 24 -160 95 -182 95 -6 0 -10 38 -10 98
l0 98 58 12 c31 6 67 18 78 27 12 8 43 63 68 121 43 98 46 110 35 137 -15 36
-102 95 -182 122 l-57 19 0 218 0 218 -185 0 -185 0 0 -189 0 -189 -67 -6
c-73 -7 -200 -23 -245 -33 l-28 -5 0 356 0 356 -322 0 c-178 1 -525 2 -773 3
-247 1 -592 1 -766 -1z m1851 -617 l0 -595 -360 0 -360 0 0 28 c0 44 -25 126
-56 182 -53 97 -184 190 -269 190 l-25 0 0 395 0 395 535 0 535 0 0 -595z
m-1662 443 c8 -8 15 -8 27 2 14 12 18 11 25 -1 7 -11 12 -11 22 -1 17 17 38
15 38 -3 0 -12 -14 -15 -70 -15 -56 0 -70 3 -70 15 0 18 12 19 28 3z m112 -38
c0 -6 -30 -10 -70 -10 -40 0 -70 4 -70 10 0 6 30 10 70 10 40 0 70 -4 70 -10z
m-80 -55 c0 -8 -4 -15 -10 -15 -5 0 -10 7 -10 15 0 8 5 15 10 15 6 0 10 -7 10
-15z m40 0 c0 -8 -7 -15 -15 -15 -8 0 -15 7 -15 15 0 8 7 15 15 15 8 0 15 -7
15 -15z m-228 -26 c3 -8 10 -8 26 2 20 12 24 12 32 -1 7 -12 12 -12 22 -2 16
16 28 15 28 -3 0 -12 -14 -15 -65 -15 -51 0 -65 3 -65 15 0 18 17 20 22 4z
m308 -1 c17 -11 22 -10 30 1 7 12 11 13 25 1 12 -10 19 -10 27 -2 16 16 28 15
28 -3 0 -12 -14 -15 -70 -15 -56 0 -70 3 -70 15 0 18 4 19 30 3z m-80 -13 c0
-10 -10 -15 -30 -15 -20 0 -30 5 -30 15 0 10 10 15 30 15 20 0 30 -5 30 -15z
m-1040 -183 l0 -187 -97 -18 c-54 -9 -108 -20 -120 -23 l-23 -6 0 211 0 211
120 0 120 0 0 -188z m40 -2 c0 -162 -2 -190 -15 -190 -13 0 -15 28 -15 190 0
162 2 190 15 190 13 0 15 -28 15 -190z m60 6 l0 -184 -25 -4 -25 -5 0 188 0
189 25 0 25 0 0 -184z m3140 -17 c0 -186 -1 -200 -17 -195 -16 5 -190 25 -220
26 -10 0 -13 44 -13 185 l0 185 125 0 125 0 0 -201z m40 1 c0 -171 -2 -200
-15 -200 -13 0 -15 29 -15 200 0 171 2 200 15 200 13 0 15 -29 15 -200z m50
-10 c0 -115 -2 -210 -4 -210 -2 0 -11 3 -20 6 -14 5 -16 33 -16 210 0 197 1
204 20 204 19 0 20 -7 20 -210z m-2410 180 c0 -6 -28 -10 -65 -10 -37 0 -65 4
-65 10 0 6 28 10 65 10 37 0 65 -4 65 -10z m310 0 c0 -6 -30 -10 -70 -10 -40
0 -70 4 -70 10 0 6 30 10 70 10 40 0 70 -4 70 -10z m-230 -15 c0 -8 -4 -15
-10 -15 -5 0 -10 7 -10 15 0 8 5 15 10 15 6 0 10 -7 10 -15z m40 0 c0 -8 -7
-15 -15 -15 -8 0 -15 7 -15 15 0 8 7 15 15 15 8 0 15 -7 15 -15z m-190 -40 c0
-8 -7 -15 -15 -15 -8 0 -15 7 -15 15 0 8 7 15 15 15 8 0 15 -7 15 -15z m40 0
c0 -8 -7 -15 -15 -15 -8 0 -15 7 -15 15 0 8 7 15 15 15 8 0 15 -7 15 -15z
m150 0 c0 -10 -10 -15 -30 -15 -20 0 -30 5 -30 15 0 10 10 15 30 15 20 0 30
-5 30 -15z m110 0 c0 -8 -4 -15 -10 -15 -5 0 -10 7 -10 15 0 8 5 15 10 15 6 0
10 -7 10 -15z m40 0 c0 -8 -4 -15 -10 -15 -5 0 -10 7 -10 15 0 8 5 15 10 15 6
0 10 -7 10 -15z m-390 -40 c0 -9 -9 -15 -25 -15 -16 0 -25 6 -25 15 0 9 9 15
25 15 16 0 25 -6 25 -15z m90 -30 c0 -45 0 -45 -35 -45 -23 0 -35 5 -35 14 0
7 -3 28 -6 45 -6 31 -6 31 35 31 l41 0 0 -45z m60 30 c0 -9 -9 -15 -25 -15
-16 0 -25 6 -25 15 0 9 9 15 25 15 16 0 25 -6 25 -15z m96 -1 c-3 -9 -6 -29
-6 -45 0 -27 -3 -29 -35 -29 -35 0 -35 0 -35 45 l0 45 41 0 c33 0 40 -3 35
-16z m58 1 c4 -11 -1 -15 -19 -15 -16 0 -25 6 -25 15 0 8 9 15 19 15 10 0 21
-7 25 -15z m96 -17 c0 -46 -12 -60 -46 -56 -26 3 -29 7 -32 46 l-3 42 40 0
c40 0 41 -1 41 -32z m70 17 c0 -10 -10 -15 -30 -15 -20 0 -30 5 -30 15 0 10
10 15 30 15 20 0 30 -5 30 -15z m-500 -40 c0 -8 -4 -15 -10 -15 -5 0 -10 7
-10 15 0 8 5 15 10 15 6 0 10 -7 10 -15z m27 -7 c-3 -8 -6 -5 -6 6 -1 11 2 17
5 13 3 -3 4 -12 1 -19z m123 7 c0 -8 -4 -15 -10 -15 -5 0 -10 7 -10 15 0 8 5
15 10 15 6 0 10 -7 10 -15z m40 0 c0 -8 -4 -15 -10 -15 -5 0 -10 7 -10 15 0 8
5 15 10 15 6 0 10 -7 10 -15z m120 0 c0 -8 -7 -15 -15 -15 -16 0 -20 12 -8 23
11 12 23 8 23 -8z m30 0 c0 -8 -4 -15 -10 -15 -5 0 -10 7 -10 15 0 8 5 15 10
15 6 0 10 -7 10 -15z m120 0 c0 -8 -4 -15 -10 -15 -5 0 -10 7 -10 15 0 8 5 15
10 15 6 0 10 -7 10 -15z m40 0 c0 -8 -7 -15 -15 -15 -8 0 -15 7 -15 15 0 8 7
15 15 15 8 0 15 -7 15 -15z m-460 -40 c0 -10 -10 -15 -30 -15 -20 0 -30 5 -30
15 0 10 10 15 30 15 20 0 30 -5 30 -15z m150 0 c0 -10 -10 -15 -30 -15 -20 0
-30 5 -30 15 0 10 10 15 30 15 20 0 30 -5 30 -15z m150 0 c0 -10 -10 -15 -30
-15 -20 0 -30 5 -30 15 0 10 10 15 30 15 20 0 30 -5 30 -15z m160 0 c0 -10
-10 -15 -30 -15 -20 0 -30 5 -30 15 0 10 10 15 30 15 20 0 30 -5 30 -15z
m-392 -12 c-10 -2 -28 -2 -40 0 -13 2 -5 4 17 4 22 1 32 -1 23 -4z m150 0
c-10 -2 -26 -2 -35 0 -10 3 -2 5 17 5 19 0 27 -2 18 -5z m150 0 c-10 -2 -26
-2 -35 0 -10 3 -2 5 17 5 19 0 27 -2 18 -5z m-408 -28 c0 -8 -4 -15 -10 -15
-5 0 -10 7 -10 15 0 8 5 15 10 15 6 0 10 -7 10 -15z m80 0 c0 -10 -10 -15 -30
-15 -20 0 -30 5 -30 15 0 10 10 15 30 15 20 0 30 -5 30 -15z m70 0 c0 -10 -10
-15 -30 -15 -20 0 -30 5 -30 15 0 10 10 15 30 15 20 0 30 -5 30 -15z m80 0 c0
-10 -10 -15 -30 -15 -20 0 -30 5 -30 15 0 10 10 15 30 15 20 0 30 -5 30 -15z
m80 0 c0 -10 -11 -15 -35 -15 -24 0 -35 5 -35 15 0 10 11 15 35 15 24 0 35 -5
35 -15z m70 0 c0 -10 -10 -15 -30 -15 -20 0 -30 5 -30 15 0 10 10 15 30 15 20
0 30 -5 30 -15z m80 0 c0 -10 -10 -15 -30 -15 -20 0 -30 5 -30 15 0 10 10 15
30 15 20 0 30 -5 30 -15z m40 0 c0 -8 -7 -15 -15 -15 -8 0 -15 7 -15 15 0 8 7
15 15 15 8 0 15 -7 15 -15z m-460 -40 c0 -8 -4 -15 -10 -15 -5 0 -10 7 -10 15
0 8 5 15 10 15 6 0 10 -7 10 -15z m80 0 c0 -10 -11 -15 -35 -15 -24 0 -35 5
-35 15 0 10 11 15 35 15 24 0 35 -5 35 -15z m70 0 c0 -10 -10 -15 -30 -15 -20
0 -30 5 -30 15 0 10 10 15 30 15 20 0 30 -5 30 -15z m80 0 c0 -10 -10 -15 -30
-15 -20 0 -30 5 -30 15 0 10 10 15 30 15 20 0 30 -5 30 -15z m70 0 c0 -10 -10
-15 -30 -15 -20 0 -30 5 -30 15 0 10 10 15 30 15 20 0 30 -5 30 -15z m80 0 c0
-10 -10 -15 -30 -15 -20 0 -30 5 -30 15 0 10 10 15 30 15 20 0 30 -5 30 -15z
m40 0 c0 -8 -4 -15 -10 -15 -5 0 -10 7 -10 15 0 8 5 15 10 15 6 0 10 -7 10
-15z m-389 -39 c0 -6 -12 -11 -26 -13 -18 -3 -25 1 -25 12 0 12 7 15 25 13 14
-2 26 -7 26 -12z m159 -1 c0 -10 -10 -15 -30 -15 -20 0 -30 5 -30 15 0 10 10
15 30 15 20 0 30 -5 30 -15z m80 0 c0 -10 -11 -15 -35 -15 -24 0 -35 5 -35 15
0 10 11 15 35 15 24 0 35 -5 35 -15z m150 0 c0 -8 -9 -15 -19 -15 -10 0 -21 7
-25 15 -4 11 1 15 19 15 16 0 25 -6 25 -15z m-123 -20 c-7 -13 -14 -20 -15
-14 -2 5 2 16 8 24 18 21 20 18 7 -10z m-297 -20 c0 -8 -4 -15 -10 -15 -5 0
-10 7 -10 15 0 8 5 15 10 15 6 0 10 -7 10 -15z m150 0 c0 -8 -4 -15 -9 -15 -5
0 -11 7 -15 15 -3 9 0 15 9 15 8 0 15 -7 15 -15z m80 0 c0 -10 -10 -15 -30
-15 -20 0 -30 5 -30 15 0 10 10 15 30 15 20 0 30 -5 30 -15z m40 0 c0 -8 -7
-15 -15 -15 -8 0 -15 7 -15 15 0 8 7 15 15 15 8 0 15 -7 15 -15z m150 0 c0 -8
-7 -15 -15 -15 -8 0 -15 7 -15 15 0 8 7 15 15 15 8 0 15 -7 15 -15z m-420 -40
c0 -8 -4 -15 -10 -15 -5 0 -10 7 -10 15 0 8 5 15 10 15 6 0 10 -7 10 -15z
m190 0 c0 -10 -10 -15 -30 -15 -20 0 -30 5 -30 15 0 10 10 15 30 15 20 0 30
-5 30 -15z m80 0 c0 -10 -11 -15 -35 -15 -24 0 -35 5 -35 15 0 10 11 15 35 15
24 0 35 -5 35 -15z m150 0 c0 -8 -7 -15 -15 -15 -8 0 -15 7 -15 15 0 8 7 15
15 15 8 0 15 -7 15 -15z m-1202 -63 c13 -23 27 -40 31 -38 4 3 13 23 21 45 7
23 17 41 22 41 4 0 8 -2 8 -5 0 -14 -55 -135 -61 -135 -6 0 -58 80 -87 133 -2
5 6 7 19 5 16 -2 32 -17 47 -46z m230 28 c4 -12 2 -13 -9 -2 -18 16 -49 15
-49 -2 0 -8 14 -24 30 -36 38 -27 41 -67 6 -76 -35 -8 -69 -1 -74 16 -4 12 -2
13 9 3 18 -18 59 -16 59 1 0 8 -13 24 -30 36 -32 23 -38 48 -18 68 17 17 70
11 76 -8z m2628 5 c-3 -9 -13 -40 -22 -70 -9 -31 -21 -55 -29 -55 -7 0 -28 21
-47 48 -52 72 -52 72 -26 72 16 0 31 -12 48 -40 14 -22 28 -40 31 -40 4 0 12
23 19 50 7 28 17 50 22 50 6 0 7 -7 4 -15z m94 -45 l0 -60 31 0 c16 0 28 -3
25 -8 -2 -4 -25 -6 -50 -4 l-46 4 0 64 c0 57 2 64 20 64 18 0 20 -7 20 -60z
m165 51 c32 -7 34 -9 13 -10 -24 -1 -28 -5 -28 -30 0 -51 -12 -91 -27 -91 -12
0 -14 13 -11 62 3 59 2 62 -22 69 -24 7 -24 7 5 7 17 1 48 -3 70 -7z m-2335
-16 c0 -8 -4 -15 -10 -15 -5 0 -10 7 -10 15 0 8 5 15 10 15 6 0 10 -7 10 -15z
m150 0 c0 -8 -4 -15 -10 -15 -5 0 -10 7 -10 15 0 8 5 15 10 15 6 0 10 -7 10
-15z m80 0 c0 -10 -10 -15 -30 -15 -20 0 -30 5 -30 15 0 10 10 15 30 15 20 0
30 -5 30 -15z m40 0 c0 -8 -7 -15 -15 -15 -8 0 -15 7 -15 15 0 8 7 15 15 15 8
0 15 -7 15 -15z m150 0 c0 -8 -7 -15 -15 -15 -8 0 -15 7 -15 15 0 8 7 15 15
15 8 0 15 -7 15 -15z m-1349 -56 c12 -60 13 -61 40 -55 16 3 29 2 29 -3 0 -8
-79 -25 -86 -18 -2 1 -10 31 -18 64 -14 60 -12 69 16 72 4 1 12 -26 19 -60z
m3419 37 c38 -17 32 -38 -18 -63 -2 0 4 -15 12 -32 20 -37 20 -41 1 -41 -9 0
-23 16 -32 35 -17 36 -33 38 -33 4 0 -12 -7 -19 -20 -19 -24 0 -24 -4 -4 75
16 62 17 65 43 59 14 -4 37 -12 51 -18z m-3512 -33 c2 -15 -6 -29 -27 -44 -24
-17 -28 -26 -21 -40 15 -26 12 -39 -8 -39 -12 0 -24 18 -41 61 -13 33 -22 62
-20 63 12 10 68 25 89 23 17 -1 26 -9 28 -24z m1048 17 c8 0 14 -4 14 -10 0
-5 -13 -10 -30 -10 -21 0 -30 5 -30 16 0 11 5 14 16 10 9 -3 22 -6 30 -6z
m164 -5 c0 -10 -10 -15 -30 -15 -20 0 -30 5 -30 15 0 10 10 15 30 15 20 0 30
-5 30 -15z m80 0 c0 -10 -11 -15 -35 -15 -24 0 -35 5 -35 15 0 10 11 15 35 15
24 0 35 -5 35 -15z m150 0 c0 -10 -10 -15 -30 -15 -49 0 -34 24 18 29 6 0 12
-6 12 -14z m-310 -5 c0 -5 -13 -10 -30 -10 -16 0 -30 5 -30 10 0 6 14 10 30
10 17 0 30 -4 30 -10z m230 0 c0 -5 -13 -10 -30 -10 -16 0 -30 5 -30 10 0 6
14 10 30 10 17 0 30 -4 30 -10z m-340 -40 c0 -5 -4 -10 -10 -10 -5 0 -10 5
-10 10 0 6 5 10 10 10 6 0 10 -4 10 -10z m80 0 c0 -5 -16 -10 -35 -10 -19 0
-35 5 -35 10 0 6 16 10 35 10 19 0 35 -4 35 -10z m70 0 c0 -5 -13 -10 -30 -10
-16 0 -30 5 -30 10 0 6 14 10 30 10 17 0 30 -4 30 -10z m80 0 c0 -5 -13 -10
-30 -10 -16 0 -30 5 -30 10 0 6 14 10 30 10 17 0 30 -4 30 -10z m70 0 c0 -5
-13 -10 -30 -10 -16 0 -30 5 -30 10 0 6 14 10 30 10 17 0 30 -4 30 -10z m80 0
c0 -5 -13 -10 -30 -10 -16 0 -30 5 -30 10 0 6 14 10 30 10 17 0 30 -4 30 -10z
m40 0 c0 -5 -4 -10 -10 -10 -5 0 -10 5 -10 10 0 6 5 10 10 10 6 0 10 -4 10
-10z m2244 -78 c-6 -64 -8 -70 -24 -62 -12 6 -16 17 -13 29 7 28 -38 56 -66
42 -11 -6 -26 -11 -33 -11 -7 0 18 20 57 45 38 24 73 41 78 36 5 -5 5 -40 1
-79z m-2441 43 c-1 -5 -8 -14 -17 -20 -18 -11 -42 7 -31 25 8 13 51 9 48 -5z
m-183 -5 c0 -5 -13 -10 -30 -10 -16 0 -30 5 -30 10 0 6 14 10 30 10 17 0 30
-4 30 -10z m70 0 c0 -5 -13 -10 -30 -10 -16 0 -30 5 -30 10 0 6 14 10 30 10
17 0 30 -4 30 -10z m157 4 c-3 -3 -12 -4 -19 -1 -8 3 -5 6 6 6 11 1 17 -2 13
-5z m73 -4 c0 -5 -13 -10 -30 -10 -16 0 -30 5 -30 10 0 6 14 10 30 10 17 0 30
-4 30 -10z m80 0 c0 -5 -13 -10 -30 -10 -16 0 -30 5 -30 10 0 6 14 10 30 10
17 0 30 -4 30 -10z m-255 -19 c8 -14 -10 -22 -30 -15 -13 5 -14 8 -3 15 17 11
26 11 33 0z m100 0 c3 -5 1 -13 -5 -16 -15 -9 -43 3 -35 15 8 13 32 13 40 1z
m-1075 -180 l0 -179 -92 -40 c-51 -23 -105 -45 -120 -51 l-28 -11 0 200 0 200
28 11 c22 9 179 46 205 48 4 1 7 -80 7 -178z m40 10 c0 -141 -2 -170 -15 -175
-13 -5 -15 18 -15 169 0 149 2 175 15 175 13 0 15 -25 15 -169z m60 16 l0
-154 -25 -11 -25 -12 0 165 0 165 25 0 25 0 0 -153z m630 138 c0 -8 -4 -15
-10 -15 -5 0 -10 7 -10 15 0 8 5 15 10 15 6 0 10 -7 10 -15z m80 0 c0 -10 -10
-15 -30 -15 -20 0 -30 5 -30 15 0 10 10 15 30 15 20 0 30 -5 30 -15z m78 3
c-7 -20 -68 -23 -68 -4 0 12 10 16 36 16 24 0 34 -4 32 -12z m302 -3 c0 -10
-10 -15 -30 -15 -20 0 -30 5 -30 15 0 10 10 15 30 15 20 0 30 -5 30 -15z m80
0 c0 -10 -10 -15 -30 -15 -20 0 -30 5 -30 15 0 10 10 15 30 15 20 0 30 -5 30
-15z m40 0 c0 -8 -7 -15 -15 -15 -8 0 -15 7 -15 15 0 8 7 15 15 15 8 0 15 -7
15 -15z m1860 2 l65 -12 3 -197 2 -197 -27 10 c-16 5 -71 31 -123 57 l-95 47
-3 153 -3 152 58 0 c32 -1 87 -6 123 -13z m-2246 -3 c23 -9 20 -34 -4 -34 -13
0 -20 7 -20 20 0 22 1 23 24 14z m190 -10 c9 -23 8 -24 -12 -24 -26 0 -34 11
-21 27 15 17 26 17 33 -3z m2166 -210 c0 -166 -2 -194 -15 -194 -13 0 -15 29
-15 200 0 173 2 199 15 194 13 -5 15 -37 15 -200z m50 -21 c0 -201 0 -204 -20
-193 -19 10 -20 21 -20 209 0 194 0 199 20 194 19 -5 20 -14 20 -210z m-2560
197 c0 -5 -13 -10 -30 -10 -16 0 -30 5 -30 10 0 6 14 10 30 10 17 0 30 -4 30
-10z m80 0 c0 -5 -13 -10 -30 -10 -16 0 -30 5 -30 10 0 6 14 10 30 10 17 0 30
-4 30 -10z m40 0 c12 -8 11 -10 -7 -10 -13 0 -23 5 -23 10 0 13 11 13 30 0z
m260 0 c0 -5 -7 -10 -16 -10 -8 0 -12 5 -9 10 3 6 10 10 16 10 5 0 9 -4 9 -10z
m80 0 c0 -5 -13 -10 -30 -10 -16 0 -30 5 -30 10 0 6 14 10 30 10 17 0 30 -4
30 -10z m45 0 c-3 -5 -13 -10 -21 -10 -8 0 -14 5 -14 10 0 6 9 10 21 10 11 0
17 -4 14 -10z m-1525 -15 c0 -10 -10 -15 -32 -15 l-33 1 30 14 c17 7 31 14 33
14 1 1 2 -6 2 -14z m1190 -36 c0 -28 -4 -39 -15 -39 -11 0 -15 12 -15 45 0 35
3 43 15 39 10 -4 15 -20 15 -45z m160 6 c0 -25 -4 -45 -10 -45 -11 0 -14 73
-3 83 11 12 13 8 13 -38z m2299 19 c2 -2 -8 -4 -22 -4 -18 0 -27 5 -27 15 0
13 4 14 23 4 12 -6 24 -13 26 -15z m-2669 -14 c0 -5 -4 -10 -10 -10 -5 0 -10
5 -10 10 0 6 5 10 10 10 6 0 10 -4 10 -10z m80 0 c0 -5 -13 -10 -30 -10 -16 0
-30 5 -30 10 0 6 14 10 30 10 17 0 30 -4 30 -10z m90 0 c0 -5 -18 -10 -40 -10
-22 0 -40 5 -40 10 0 6 18 10 40 10 22 0 40 -4 40 -10z m290 0 c0 -5 -16 -10
-35 -10 -19 0 -35 5 -35 10 0 6 16 10 35 10 19 0 35 -4 35 -10z m60 0 c0 -5
-9 -10 -20 -10 -11 0 -20 5 -20 10 0 6 9 10 20 10 11 0 20 -4 20 -10z m-480
-40 c0 -5 -13 -10 -30 -10 -16 0 -30 5 -30 10 0 6 14 10 30 10 17 0 30 -4 30
-10z m80 0 c0 -5 -13 -10 -30 -10 -16 0 -30 5 -30 10 0 6 14 10 30 10 17 0 30
-4 30 -10z m50 0 c0 -5 -9 -10 -20 -10 -11 0 -20 5 -20 10 0 6 9 10 20 10 11
0 20 -4 20 -10z m250 0 c0 -5 -7 -10 -15 -10 -8 0 -15 5 -15 10 0 6 7 10 15
10 8 0 15 -4 15 -10z m80 0 c0 -5 -13 -10 -30 -10 -16 0 -30 5 -30 10 0 6 14
10 30 10 17 0 30 -4 30 -10z m224 -73 c-6 -29 -5 -30 10 -18 15 12 19 12 33
-1 18 -19 10 -38 -18 -38 -11 0 -22 -7 -25 -15 -4 -8 -12 -15 -19 -15 -7 0
-15 7 -19 15 -3 8 -15 15 -26 15 -25 0 -38 29 -19 40 7 5 21 4 30 -1 16 -8 17
-5 12 25 -3 18 0 44 7 56 l13 24 14 -28 c9 -18 12 -38 7 -59z m230 0 c-6 -29
-5 -30 10 -18 15 12 19 12 33 -1 18 -19 10 -38 -18 -38 -11 0 -22 -7 -25 -15
-4 -8 -12 -15 -19 -15 -7 0 -15 7 -19 15 -3 8 -15 15 -26 15 -25 0 -38 29 -19
40 7 5 21 4 32 -1 16 -9 18 -7 12 24 -4 21 -2 44 5 58 l13 23 14 -28 c9 -18
12 -38 7 -59z m-221 -104 c-13 -2 -35 -2 -50 0 -16 2 -5 4 22 4 28 0 40 -2 28
-4z m230 0 c-13 -2 -35 -2 -50 0 -16 2 -5 4 22 4 28 0 40 -2 28 -4z m-243 -28
c-10 -12 -16 -13 -26 -4 -20 16 -18 19 12 19 22 0 25 -2 14 -15z m117 -52 c-4
-36 -2 -41 9 -32 19 16 44 4 44 -21 0 -15 -7 -20 -25 -20 -14 0 -25 -4 -25
-10 0 -5 -9 -10 -20 -10 -11 0 -20 5 -20 10 0 6 -11 10 -25 10 -18 0 -25 5
-25 19 0 25 18 37 33 22 18 -18 24 -13 19 19 -2 16 -1 41 2 56 6 22 9 24 22
13 12 -10 15 -25 11 -56z m113 52 c-10 -12 -16 -13 -26 -4 -20 16 -18 19 12
19 22 0 25 -2 14 -15z m-1100 -502 c-1 -465 -2 -506 -16 -488 -29 36 -73 139
-84 194 -6 30 -10 215 -10 427 l0 374 55 0 55 0 0 -507z m240 -84 l0 -590 -22
6 c-13 4 -38 16 -55 27 l-33 20 0 564 0 564 55 0 55 0 0 -591z m240 -13 l0
-604 -27 -5 c-16 -3 -40 -3 -55 0 l-28 6 0 603 0 604 55 0 55 0 0 -604z m157
474 c9 -25 31 -68 49 -96 l34 -51 0 -430 0 -429 -45 -22 c-25 -12 -50 -22 -55
-22 -6 0 -10 205 -9 568 1 312 3 558 6 547 2 -11 11 -40 20 -65z m914 24 c15
-19 68 -18 75 1 4 11 21 15 59 15 38 0 55 -4 59 -15 8 -22 63 -19 93 5 59 46
128 -35 73 -85 -14 -12 -20 -31 -20 -57 0 -31 4 -41 20 -45 17 -4 20 -14 20
-55 0 -41 -3 -51 -20 -55 -16 -4 -20 -14 -20 -44 0 -26 7 -46 20 -59 11 -11
20 -31 20 -43 0 -13 -9 -32 -20 -42 -11 -10 -20 -29 -20 -42 0 -16 7 -27 20
-30 16 -4 20 -14 20 -47 0 -45 -7 -60 -29 -68 -24 -7 -39 -68 -27 -101 10 -26
8 -31 -18 -53 -16 -14 -34 -23 -41 -20 -18 6 -67 -48 -63 -69 2 -12 -11 -25
-41 -42 -39 -20 -46 -21 -60 -9 -21 19 -64 10 -92 -20 -27 -29 -65 -31 -94 -4
-33 31 -79 41 -98 23 -14 -14 -20 -13 -59 9 -29 16 -43 30 -43 45 -1 30 -21
50 -63 64 -56 18 -65 28 -59 71 7 52 -11 108 -35 108 -15 0 -18 8 -18 54 0 39
4 55 15 60 17 6 21 66 5 66 -6 0 -16 11 -22 25 -10 22 -8 30 10 55 26 35 31
110 7 110 -21 0 -19 36 2 45 10 3 19 1 21 -4 7 -22 32 -11 32 14 0 14 8 29 20
35 19 10 20 8 20 -40 0 -38 -4 -50 -15 -50 -21 0 -20 -78 2 -102 20 -22 78
-24 87 -3 4 11 21 15 61 15 42 0 55 -3 55 -15 0 -10 10 -15 32 -15 l31 0 -19
23 c-56 67 -68 76 -89 71 -29 -7 -89 61 -76 85 6 10 1 25 -14 46 -17 21 -21
35 -15 45 7 12 15 9 40 -15 20 -19 40 -29 54 -27 30 4 92 -68 74 -86 -9 -9 -1
-24 31 -62 40 -47 41 -50 26 -73 -31 -48 15 -98 70 -77 24 9 41 42 30 60 -4 6
6 10 25 10 18 0 33 6 36 15 4 11 21 15 59 15 38 0 55 -4 59 -15 7 -21 61 -19
86 2 28 25 28 98 0 106 -17 4 -20 14 -20 55 0 41 3 51 20 55 16 4 20 13 20 49
l-1 43 -59 -65 c-39 -42 -56 -68 -50 -74 15 -15 13 -22 -21 -61 -24 -27 -37
-34 -52 -29 -16 5 -30 -4 -63 -42 -34 -40 -45 -47 -55 -36 -7 6 -23 12 -36 12
-22 0 -23 4 -23 66 0 57 -3 67 -20 71 -17 4 -20 14 -20 55 0 41 3 51 20 55 26
7 25 31 -2 60 -27 29 -68 31 -75 3 -5 -17 -14 -20 -59 -20 -30 0 -54 3 -54 8
1 22 22 37 50 34 22 -3 30 1 30 12 0 11 -9 16 -26 16 -19 0 -25 5 -22 18 4 23
78 31 78 8 0 -19 55 -23 65 -5 18 28 74 30 96 3z m-2031 -369 l0 -305 -25 0
-25 0 0 293 0 294 23 11 c12 6 23 11 25 11 1 1 2 -136 2 -304z m1473 298 c-13
-2 -33 -2 -45 0 -13 2 -3 4 22 4 25 0 35 -2 23 -4z m1480 -22 c28 -16 82 -42
120 -56 l67 -27 0 -249 0 -249 -125 0 -125 0 0 305 c0 168 2 305 5 305 3 0 29
-13 58 -29z m-1491 -3 c-9 -9 -15 -9 -24 0 -9 9 -7 12 12 12 19 0 21 -3 12
-12z m-1522 -288 c0 -251 -2 -290 -15 -290 -13 0 -15 38 -15 284 0 276 1 287
28 295 1 1 2 -129 2 -289z m-40 -10 l0 -280 -120 0 -120 0 0 233 0 233 53 17
c28 10 81 30 117 46 36 16 66 29 68 30 1 1 2 -125 2 -279z m3278 -38 c2 -211
0 -242 -13 -242 -13 0 -15 33 -15 246 0 192 3 245 13 242 9 -4 13 -64 15 -246z
m52 -8 c0 -227 -1 -234 -20 -234 -19 0 -20 7 -20 239 0 234 0 239 20 234 19
-5 20 -14 20 -239z m-1807 160 c15 -5 17 -22 17 -187 0 -226 -19 -314 -89
-417 -8 -10 -11 83 -11 303 l0 319 33 -7 c17 -4 40 -9 50 -11z m-1398 -444
c-4 -6 -80 -10 -196 -10 -119 0 -189 4 -189 10 0 6 72 10 196 10 127 0 193 -3
189 -10z m1435 -9 c0 -10 16 -51 36 -91 95 -190 304 -309 523 -298 94 5 90 3
-59 -43 -341 -103 -715 -98 -1063 14 l-99 32 109 0 c171 0 277 42 393 155 61
59 105 129 127 197 17 53 33 70 33 34z m1795 9 c-4 -6 -80 -10 -196 -10 -119
0 -189 4 -189 10 0 6 72 10 196 10 127 0 193 -3 189 -10z m-3233 -50 l17 -30
-204 0 -203 0 11 30 11 30 176 0 175 0 17 -30z m48 -95 l0 -55 -240 0 -240 0
0 55 0 55 240 0 240 0 0 -55z m3230 0 l0 -55 -240 0 -240 0 0 55 0 55 240 0
240 0 0 -55z m-3557 -120 c47 -20 135 -19 182 1 63 26 235 -2 235 -38 0 -22
-23 -23 -80 -3 -23 8 -59 15 -80 15 -21 0 -57 -7 -80 -15 -23 -8 -64 -15 -90
-15 -26 0 -64 7 -83 15 -20 8 -57 15 -82 15 -25 0 -62 -7 -82 -15 -51 -22 -83
-20 -83 5 0 14 7 20 24 20 13 0 39 7 57 15 44 19 117 19 162 0z m3232 -1 c49
-20 124 -20 179 1 32 12 60 16 93 12 80 -10 148 -33 151 -51 4 -21 -35 -22
-85 -1 -19 8 -55 15 -80 15 -24 0 -60 -7 -80 -15 -19 -8 -59 -15 -88 -15 -29
0 -69 7 -88 15 -20 8 -57 15 -82 15 -25 0 -62 -7 -82 -15 -51 -22 -83 -20 -83
5 0 14 7 20 24 20 13 0 39 7 57 15 45 19 117 19 164 -1z m-3226 -106 c77 -23
77 -23 211 12 41 11 55 10 123 -11 61 -18 77 -27 77 -42 0 -14 -5 -18 -17 -14
-141 41 -144 42 -217 19 -81 -26 -114 -27 -161 -8 -65 27 -116 29 -180 7 -72
-26 -85 -26 -85 -3 0 12 18 23 68 39 85 27 92 27 181 1z m3223 2 c80 -25 107
-25 185 2 69 23 56 23 201 -14 31 -9 42 -16 42 -31 0 -22 0 -21 -110 9 -64 17
-66 17 -134 -4 -85 -27 -107 -27 -179 -2 -31 11 -68 20 -82 20 -14 0 -51 -9
-82 -20 -70 -25 -83 -25 -83 -2 0 12 18 23 68 39 84 27 96 27 174 3z"/>
<path d="M4838 6411 c3 -33 0 -40 -17 -46 -12 -3 -21 -11 -21 -16 0 -5 -11 -9
-24 -9 -57 0 -72 -24 -36 -60 28 -28 3 -25 -42 5 -34 23 -99 35 -97 18 1 -17
82 -73 105 -73 17 0 22 -4 18 -15 -4 -8 0 -22 7 -31 10 -13 10 -17 -2 -25 -31
-19 -93 -9 -149 24 l-55 34 3 52 c3 50 -9 81 -29 81 -5 0 -6 -6 -3 -14 3 -8 1
-17 -5 -21 -6 -3 -11 -15 -11 -26 0 -19 -16 -27 -22 -10 -6 18 -53 22 -73 7
-19 -14 -19 -15 -2 -16 11 0 27 -10 37 -22 18 -22 18 -23 -11 -35 -17 -7 -29
-20 -29 -30 0 -15 7 -18 44 -15 37 3 46 0 55 -17 10 -17 9 -21 -4 -21 -8 0
-15 -4 -15 -10 0 -6 3 -9 8 -9 4 1 15 1 26 0 14 -1 16 -4 7 -15 -9 -11 -3 -16
32 -24 24 -6 51 -20 61 -31 16 -18 16 -20 -17 -40 -37 -22 -72 -27 -82 -11 -9
15 -61 12 -75 -5 -10 -12 -9 -15 4 -15 9 0 23 -6 30 -12 11 -11 8 -16 -15 -30
-29 -18 -39 -40 -16 -37 41 5 57 -2 57 -26 0 -13 8 -28 18 -34 14 -8 19 -4 27
31 9 33 16 43 39 49 22 6 26 5 22 -7 -8 -20 4 -17 31 8 15 14 23 17 23 8 0 -9
8 -6 23 8 30 29 41 28 58 -5 8 -14 34 -39 59 -54 l45 -29 -47 0 c-61 0 -88
-24 -88 -77 1 -38 21 -79 33 -66 4 3 7 1 7 -5 0 -21 -42 -13 -66 13 -23 25
-68 34 -79 15 -3 -5 1 -10 9 -10 28 0 22 -34 -9 -50 -48 -24 -44 -46 8 -44 41
1 43 0 39 -22 -2 -13 1 -31 8 -39 15 -18 31 -20 25 -2 -2 6 3 21 13 32 14 17
29 21 77 20 67 0 68 2 51 88 -8 35 -7 37 18 37 23 0 26 -4 26 -35 0 -24 9 -44
30 -67 16 -18 30 -27 30 -19 0 11 3 11 15 1 12 -10 15 -9 15 4 0 10 5 14 10
11 6 -3 10 -14 10 -24 0 -13 -10 -20 -36 -24 -37 -6 -64 -22 -64 -39 0 -5 8
-7 18 -4 29 9 46 -8 33 -33 -9 -16 -9 -26 1 -43 10 -20 13 -21 16 -5 2 9 10
17 18 17 8 0 14 6 14 13 1 6 7 0 15 -14 18 -33 49 -48 40 -20 -3 11 -2 22 4
25 5 3 7 24 4 46 -4 29 0 48 16 76 25 42 20 71 -15 84 -55 21 -39 102 24 119
81 22 101 91 58 205 -32 84 -33 130 -5 154 11 9 27 31 36 47 8 17 25 40 36 53
l20 22 -22 0 -22 0 22 29 c11 16 19 36 17 45 -3 14 -8 13 -40 -9 l-37 -25 -6
21 c-11 34 -44 -70 -55 -171 -8 -73 -6 -97 13 -173 19 -80 20 -91 6 -115 -22
-40 -76 -42 -113 -5 -32 32 -66 94 -66 120 0 15 2 16 10 3 7 -11 10 -1 10 35
1 44 2 48 14 33 18 -25 26 -22 26 8 0 22 2 25 15 14 13 -11 15 -8 15 13 0 14
-4 29 -10 32 -5 3 -15 16 -21 27 -9 18 -9 20 4 15 13 -5 15 2 10 49 -4 38 -2
54 6 54 7 0 9 5 6 10 -4 6 -10 8 -14 5 -12 -7 -53 40 -44 50 5 4 3 5 -4 1 -15
-8 -63 21 -63 40 0 7 5 16 12 20 7 4 8 3 4 -4 -4 -7 -1 -12 8 -12 8 0 17 -6
19 -12 4 -10 8 -9 16 2 17 24 8 45 -17 42 -13 -2 -25 3 -28 12 -12 32 -30 17
-26 -23z m25 -62 c12 -6 37 -25 55 -42 25 -25 32 -39 32 -70 0 -33 -2 -38 -14
-28 -13 11 -13 7 -4 -26 5 -21 17 -47 26 -57 16 -18 16 -18 -6 -7 -23 12 -24
12 -17 -21 l7 -33 -26 25 -27 24 7 -42 c4 -29 3 -42 -5 -42 -6 0 -14 7 -17 15
-9 23 -21 18 -29 -12 l-7 -28 -11 25 c-6 14 -12 27 -14 29 -1 2 -11 -7 -22
-20 l-20 -24 -1 28 c0 31 -7 33 -34 12 -11 -8 -23 -15 -27 -15 -11 0 -16 47
-7 65 8 13 5 16 -14 14 -13 -1 -34 -1 -48 0 -42 2 -2 21 47 21 25 0 48 7 58
16 15 15 15 18 0 34 -16 18 -15 19 17 22 28 2 34 7 36 30 3 22 -2 30 -25 40
-15 7 -29 13 -31 14 -1 0 0 9 4 18 3 9 16 16 29 16 12 0 28 7 35 15 15 18 24
19 53 4z m310 -18 c-3 -11 -14 -27 -24 -37 -24 -21 -25 -36 -2 -27 14 5 13 0
-7 -33 -13 -21 -34 -50 -47 -65 -31 -34 -30 -85 3 -176 19 -52 25 -82 20 -107
-7 -38 -46 -76 -77 -76 -29 0 -59 -36 -59 -71 0 -37 16 -69 35 -69 30 0 33
-32 9 -78 -27 -50 -30 -72 -12 -90 9 -9 7 -12 -9 -12 -11 0 -24 8 -28 18 -6
16 -7 16 -20 -1 -10 -14 -15 -15 -21 -6 -4 7 -2 15 4 17 17 5 15 22 -3 22 -27
0 -16 29 12 32 37 4 40 29 9 64 -22 25 -25 26 -26 10 0 -20 0 -20 -15 0 -14
18 -14 18 -15 0 0 -15 -3 -16 -14 -7 -26 21 -29 66 -8 108 26 51 16 71 -64
117 -35 20 -71 48 -80 61 -16 25 -16 26 22 60 46 40 54 42 61 15 7 -27 15 -25
35 8 15 23 18 24 18 7 1 -31 34 -98 70 -138 28 -32 38 -37 75 -37 73 0 92 50
59 159 -19 66 -14 242 8 285 9 17 18 24 22 18 4 -6 18 1 35 19 35 34 41 36 34
10z m-660 -47 c3 -4 2 -15 -4 -25 -14 -27 4 -55 49 -79 64 -34 65 -35 52 -59
-10 -20 -9 -22 12 -20 66 6 73 -6 26 -41 -25 -18 -34 -21 -47 -11 -9 6 -31 18
-50 27 -24 11 -30 18 -22 23 9 6 6 10 -11 15 -12 4 -18 9 -12 12 18 8 -41 65
-60 58 -11 -4 -16 -1 -16 10 0 9 5 16 10 16 14 0 12 27 -2 33 -10 4 -10 7 -1
17 10 11 15 11 28 0 14 -11 17 -10 22 8 5 22 14 27 26 16z m164 -245 c-5 -18
-2 -20 16 -16 12 2 30 8 40 12 13 6 17 2 17 -16 0 -18 -12 -30 -50 -50 -28
-15 -50 -23 -50 -18 0 17 -18 9 -23 -11 -5 -20 -27 -29 -27 -11 0 5 -17 3 -37
-4 -25 -9 -39 -20 -41 -33 -2 -13 -9 -19 -17 -16 -8 3 -11 13 -8 21 5 12 1 14
-14 9 -14 -4 -20 -2 -20 9 0 8 6 15 14 15 18 0 16 17 -3 28 -24 14 1 25 26 12
26 -14 70 5 128 54 51 42 56 44 49 15z m187 -228 c25 -28 13 -61 -22 -61 -45
0 -56 -13 -49 -56 14 -87 19 -79 -50 -76 -50 3 -64 1 -69 -11 -3 -9 -12 -13
-19 -11 -8 3 -11 13 -8 21 5 13 2 15 -15 11 -15 -4 -22 -2 -22 8 0 8 7 14 16
14 11 0 15 6 11 20 -7 29 9 34 33 10 23 -23 33 -24 61 -10 12 7 19 21 19 41 0
17 -4 28 -10 24 -5 -3 -12 6 -16 21 -5 19 -9 22 -15 12 -6 -9 -9 -7 -9 8 0 30
18 42 70 47 25 2 52 4 61 5 9 1 24 -7 33 -17z"/>
<path d="M4820 6325 c7 -8 19 -15 27 -15 13 0 13 3 3 15 -7 8 -19 15 -27 15
-13 0 -13 -3 -3 -15z"/>
<path d="M4921 6383 c-8 -15 -5 -22 12 -33 22 -13 34 -12 29 3 -1 5 2 6 7 3 5
-3 7 -14 4 -24 -5 -22 12 -38 50 -44 31 -6 36 6 9 21 -13 7 -23 6 -30 -1 -9
-9 -12 -8 -12 4 0 9 5 20 10 23 17 11 11 23 -12 27 -13 2 -23 10 -23 18 0 22
-32 24 -44 3z m36 -28 c0 -8 -4 -12 -9 -9 -5 3 -6 10 -3 15 9 13 12 11 12 -6z"/>
<path d="M5938 5755 c-3 -14 -1 -28 4 -31 15 -9 42 22 35 40 -10 25 -34 19
-39 -9z"/>
<path d="M2400 5741 c0 -20 13 -41 25 -41 15 0 24 19 18 38 -5 14 -43 17 -43
3z"/>
<path d="M6101 5666 c-9 -11 -8 -15 5 -20 22 -8 21 -9 27 14 6 23 -15 27 -32
6z"/>
<path d="M4930 5165 c0 -9 9 -15 25 -15 16 0 25 6 25 15 0 9 -9 15 -25 15 -16
0 -25 -6 -25 -15z"/>
<path d="M4822 5127 c-27 -29 -28 -53 -2 -60 17 -4 20 -14 20 -55 0 -41 -3
-51 -20 -55 -17 -4 -20 -13 -20 -69 l1 -63 40 43 c30 32 39 49 35 64 -8 32 46
97 77 91 19 -4 34 7 75 55 29 33 52 62 52 66 0 3 -13 6 -29 6 -21 0 -32 -6
-36 -20 -5 -17 -15 -20 -60 -20 -44 0 -53 3 -58 20 -7 28 -48 26 -75 -3z"/>
<path d="M4760 5015 c0 -16 6 -25 15 -25 9 0 15 9 15 25 0 16 -6 25 -15 25 -9
0 -15 -9 -15 -25z"/>
<path d="M5122 4968 c2 -13 10 -23 18 -23 8 0 16 10 18 23 3 17 -2 22 -18 22
-16 0 -21 -5 -18 -22z"/>
<path d="M4590 4970 c-13 -8 -12 -13 7 -32 20 -20 23 -20 29 -4 9 24 -16 48
-36 36z"/>
<path d="M4930 4961 c-7 -14 -7 -22 1 -27 14 -8 43 21 35 35 -11 17 -24 13
-36 -8z"/>
<path d="M4394 4779 c-9 -15 11 -33 30 -26 9 4 13 13 10 22 -7 17 -30 20 -40
4z"/>
<path d="M5127 4784 c-14 -15 -6 -34 14 -34 14 0 19 5 17 17 -3 18 -20 27 -31
17z"/>
<path d="M4570 4765 c0 -10 10 -15 30 -15 20 0 30 5 30 15 0 10 -10 15 -30 15
-20 0 -30 -5 -30 -15z"/>
<path d="M4930 4765 c0 -9 9 -15 25 -15 16 0 25 6 25 15 0 9 -9 15 -25 15 -16
0 -25 -6 -25 -15z"/>
<path d="M4457 4730 c-21 -25 -22 -66 -3 -73 8 -3 18 -27 22 -53 6 -45 2 -56
-29 -67 -15 -5 12 -57 29 -57 9 0 31 17 49 37 26 30 30 41 21 55 -15 25 47 90
79 82 18 -4 30 4 59 39 20 24 36 47 36 51 0 3 -12 6 -26 6 -17 0 -28 -6 -31
-20 -5 -17 -14 -20 -60 -20 -46 0 -56 3 -60 20 -7 27 -62 27 -86 0z"/>
<path d="M4840 4737 c0 -22 75 -88 92 -82 11 4 28 -6 51 -31 28 -31 33 -41 24
-56 -10 -14 -5 -24 23 -53 19 -19 42 -35 51 -35 24 0 35 51 15 66 -11 7 -16
27 -16 59 0 38 4 48 20 52 12 3 20 14 20 27 0 51 -91 91 -105 46 -5 -17 -15
-20 -60 -20 -45 0 -55 3 -60 20 -7 22 -55 29 -55 7z"/>
<path d="M4715 4668 c-24 -28 -34 -49 -31 -62 3 -12 -6 -34 -25 -58 -25 -30
-34 -36 -48 -28 -30 15 -85 -49 -86 -100 -1 -46 17 -70 42 -54 24 15 115 -33
108 -56 -8 -25 41 -33 66 -12 15 13 19 30 19 74 0 48 -3 58 -20 63 -16 5 -20
15 -20 55 0 40 4 50 20 55 18 6 20 15 20 86 0 43 -2 79 -4 79 -3 0 -21 -19
-41 -42z"/>
<path d="M4800 4631 c0 -71 2 -80 20 -86 16 -5 20 -15 20 -55 0 -40 -4 -50
-20 -55 -17 -5 -20 -15 -20 -65 0 -49 3 -60 23 -72 28 -18 57 -12 57 13 0 24
73 63 101 54 55 -18 67 64 19 124 -23 28 -37 37 -53 34 -15 -3 -32 6 -56 31
-28 29 -32 38 -22 50 11 13 6 23 -25 61 -21 25 -40 45 -41 45 -2 0 -3 -36 -3
-79z"/>
<path d="M4400 4595 c0 -16 6 -25 15 -25 9 0 15 9 15 25 0 16 -6 25 -15 25 -9
0 -15 -9 -15 -25z"/>
<path d="M5122 4598 c2 -13 10 -23 18 -23 8 0 16 10 18 23 3 17 -2 22 -18 22
-16 0 -21 -5 -18 -22z"/>
<path d="M4600 4595 c-10 -13 -11 -18 -1 -28 10 -9 15 -8 26 7 23 31 -1 50
-25 21z"/>
<path d="M4917 4603 c-11 -10 23 -42 39 -36 13 5 12 8 -2 24 -18 20 -27 23
-37 12z"/>
<path d="M4762 4488 c5 -32 28 -35 28 -4 0 17 -5 26 -16 26 -10 0 -14 -7 -12
-22z"/>
<path d="M4575 4311 c-9 -16 35 -35 48 -22 9 9 8 14 -3 21 -19 12 -37 13 -45
1z"/>
<path d="M4934 4306 c-18 -14 -18 -15 -1 -21 9 -4 24 -2 32 5 33 28 5 42 -31
16z"/>
<path d="M4226 4311 c-3 -4 -17 -6 -32 -3 -20 4 -25 1 -22 -9 3 -8 -6 -26 -19
-41 -49 -52 -29 -124 45 -155 17 -7 32 -20 32 -28 0 -12 -13 -8 -56 15 -48 25
-68 30 -128 30 l-71 -1 35 -30 c50 -44 91 -59 160 -59 57 0 61 -1 55 -20 -5
-15 -2 -20 14 -20 11 0 22 9 26 20 6 18 15 20 78 20 58 0 82 5 124 27 58 29
64 38 31 47 -57 15 -141 6 -184 -19 -34 -20 -43 -22 -48 -10 -6 16 -2 20 37
29 31 7 67 58 67 95 0 13 -14 37 -33 56 -18 18 -31 38 -29 45 3 9 -2 11 -17 7
-11 -3 -24 -1 -27 4 -7 11 -31 12 -38 0z m52 -19 c9 9 12 8 12 -3 0 -9 11 -22
25 -29 30 -16 47 -62 35 -94 -10 -28 -47 -56 -72 -56 -16 0 -16 3 -2 37 13 30
14 44 5 74 -16 54 -35 65 -55 35 -19 -29 -21 -107 -4 -124 6 -6 9 -15 5 -18
-10 -10 -67 17 -77 37 -16 29 -11 78 9 97 40 36 51 43 60 38 5 -3 12 2 16 12
6 16 7 16 19 0 10 -13 15 -15 24 -6z"/>
<path d="M1320 3285 c0 -11 174 -282 243 -380 193 -273 358 -467 611 -721 456
-455 900 -772 1471 -1050 929 -453 1943 -626 2975 -508 1470 168 2826 954
3725 2159 73 97 252 364 314 468 l23 37 -144 0 -145 0 -48 -77 c-497 -791
-1264 -1466 -2133 -1876 -128 -61 -436 -188 -451 -186 -6 0 168 92 179 94 3 1
34 16 70 35 36 18 86 44 113 58 26 13 47 28 47 33 0 6 4 7 10 4 6 -3 10 -1 10
5 0 6 4 9 9 6 5 -4 11 -3 13 2 1 4 25 20 52 36 26 16 56 34 65 42 9 8 46 33
83 56 116 74 295 196 311 213 9 8 18 15 22 15 3 0 20 14 38 30 18 17 91 74
164 126 431 313 859 740 1141 1139 24 32 61 78 82 101 22 24 40 46 40 49 0 3
12 18 26 33 14 15 30 35 35 45 9 16 -207 17 -4471 17 -2464 0 -4480 -2 -4480
-5z"/>
</g>
</svg>
