<?xml version="1.0" standalone="no"?>
<!DOCTYPE svg PUBLIC "-//W3C//DTD SVG 20010904//EN"
 "http://www.w3.org/TR/2001/REC-SVG-20010904/DTD/svg10.dtd">
<svg version="1.0" xmlns="http://www.w3.org/2000/svg"
 width="800.000000pt" height="800.000000pt" viewBox="0 0 800.000000 800.000000"
 preserveAspectRatio="xMidYMid meet">

<g transform="translate(0.000000,800.000000) scale(0.100000,-0.100000)"
fill="#000000" stroke="none">
<path d="M3730 7989 c-612 -43 -1186 -217 -1719 -522 l-144 -82 171 -3 c95 -1
172 -6 172 -10 -1 -4 -73 -59 -161 -122 -89 -63 -163 -118 -165 -121 -2 -4 19
-73 46 -155 28 -82 57 -171 65 -197 l14 -48 -32 23 c-18 12 -89 64 -160 116
-70 51 -133 95 -141 98 -7 3 -87 -49 -177 -115 -90 -65 -165 -118 -166 -117
-1 1 22 78 52 170 52 164 53 168 27 144 -319 -289 -476 -459 -671 -733 l-72
-100 57 -3 57 -3 -109 -79 c-101 -75 -111 -85 -156 -164 l-47 -84 49 -148 c28
-82 49 -152 48 -156 -2 -5 -43 21 -92 57 -49 35 -92 62 -96 60 -11 -7 -122
-276 -123 -299 -1 -12 23 -94 53 -183 l54 -163 211 -2 210 -3 -162 -118 c-90
-65 -165 -123 -169 -128 -3 -5 22 -94 55 -198 34 -104 61 -192 61 -195 0 -3
-74 48 -164 114 -90 66 -167 120 -171 120 -4 0 -51 -32 -105 -71 l-98 -71 -6
-56 c-9 -80 -26 -338 -26 -394 l0 -48 4000 0 4000 0 0 58 c-1 245 -58 676
-123 927 l-13 50 -1932 3 -1932 2 0 525 0 525 1705 2 1704 3 -77 115 c-160
239 -298 408 -506 616 -83 82 -192 185 -243 227 l-91 77 -1246 0 -1246 0 0
435 0 435 -77 -1 c-43 -1 -130 -6 -193 -10z m-285 -611 l210 -3 -167 -120
c-92 -66 -167 -125 -167 -130 -1 -6 26 -94 59 -195 33 -102 60 -188 60 -192 0
-4 -74 46 -164 112 -90 66 -167 120 -171 120 -4 0 -79 -52 -167 -116 -88 -63
-162 -113 -165 -111 -2 3 23 89 56 192 34 102 59 190 56 195 -3 5 -75 59 -160
121 -85 61 -158 115 -161 120 -3 5 82 9 203 9 l208 0 64 198 64 197 66 -197
65 -198 211 -2z m-1705 -980 l62 -188 206 -2 206 -3 -159 -115 c-87 -63 -162
-117 -166 -120 -5 -3 20 -95 55 -203 35 -108 61 -197 59 -197 -3 0 -79 54
-170 120 l-164 121 -166 -121 c-91 -67 -167 -120 -169 -118 -2 2 23 85 56 184
33 98 60 187 60 196 0 10 -62 62 -162 135 l-162 118 206 3 206 2 63 195 c34
108 66 192 70 188 3 -5 34 -92 69 -195z m1431 7 l62 -195 208 -2 207 -3 -164
-119 c-90 -66 -164 -124 -164 -129 0 -5 27 -93 60 -195 34 -101 59 -186 57
-188 -2 -2 -64 40 -138 94 -74 54 -148 107 -165 119 l-31 22 -164 -119 c-90
-65 -165 -116 -167 -111 -1 4 25 91 58 193 33 102 60 188 60 190 0 2 -74 58
-165 124 l-165 119 207 5 207 5 58 180 c69 212 66 205 72 205 3 0 33 -88 67
-195z m-1436 -1163 l61 -187 207 -3 c114 -1 207 -6 207 -10 0 -4 -73 -59 -161
-122 -89 -63 -163 -118 -165 -121 -2 -4 14 -60 37 -125 22 -66 50 -154 64
-197 l24 -78 -67 48 c-37 26 -112 80 -166 120 -55 40 -102 73 -106 73 -4 0
-81 -54 -171 -119 -90 -66 -165 -118 -166 -117 -1 1 26 90 61 198 l63 197
-163 118 c-90 65 -164 121 -164 126 0 4 92 7 205 7 l204 0 63 194 c35 107 65
192 68 190 3 -3 32 -89 65 -192z m1709 -194 l211 -3 -167 -120 c-92 -66 -167
-125 -167 -131 -1 -6 26 -96 60 -199 33 -103 59 -188 57 -190 -2 -1 -73 49
-158 112 -85 63 -161 116 -167 120 -7 3 -85 -48 -173 -112 -89 -64 -164 -115
-166 -112 -3 3 22 89 55 192 34 102 59 190 56 195 -2 4 -75 58 -160 120 -85
62 -158 116 -161 121 -3 5 86 9 203 9 l208 0 64 198 64 197 65 -197 66 -198
210 -2z"/>
<path d="M140 2951 c0 -24 123 -380 169 -490 62 -148 161 -346 231 -465 l51
-86 3409 0 3409 0 51 86 c70 119 169 317 231 465 46 110 146 399 163 472 l6
27 -3860 0 c-2392 0 -3860 -4 -3860 -9z"/>
<path d="M1520 866 c0 -2 48 -40 108 -83 543 -403 1177 -659 1852 -747 794
-105 1602 32 2310 390 241 121 529 302 660 414 l35 29 -2482 1 c-1366 0 -2483
-2 -2483 -4z"/>
</g>
</svg>
