<?xml version="1.0" standalone="no"?>
<!DOCTYPE svg PUBLIC "-//W3C//DTD SVG 20010904//EN"
 "http://www.w3.org/TR/2001/REC-SVG-20010904/DTD/svg10.dtd">
<svg version="1.0" xmlns="http://www.w3.org/2000/svg"
 width="768.000000pt" height="768.000000pt" viewBox="0 0 768.000000 768.000000"
 preserveAspectRatio="xMidYMid meet">

<g transform="translate(0.000000,768.000000) scale(0.100000,-0.100000)"
fill="#grey" stroke="none">
<path d="M3628 7430 c-1310 -80 -2463 -857 -3033 -2044 -375 -779 -451 -1688
-214 -2528 279 -987 978 -1814 1913 -2263 870 -418 1890 -463 2806 -124 263
98 598 277 835 447 337 242 666 582 887 915 375 564 573 1160 608 1828 52
1013 -325 1993 -1045 2715 -523 525 -1172 868 -1890 999 -271 50 -604 71 -867
55z m-98 -2410 c168 -307 307 -559 310 -559 3 0 146 252 319 559 l313 560 425
0 425 0 -23 -37 c-13 -21 -250 -396 -528 -833 -278 -437 -505 -802 -504 -810
0 -8 252 -415 560 -905 308 -489 557 -893 554 -898 -4 -4 -204 -6 -445 -5
l-437 3 -327 587 c-180 323 -329 588 -332 588 -3 0 -160 -263 -349 -585 l-344
-585 -428 0 -428 0 131 208 c782 1238 981 1556 981 1566 0 6 -237 391 -526
855 -290 463 -527 845 -527 847 0 2 197 4 438 4 l437 0 305 -560z"/>
</g>
</svg>
